solid OpenSCAD_Model
  facet normal -0.815505 0.57875 0
    outer loop
      vertex -67 0 -5
      vertex -67 0 5
      vertex -62.111 6.889 -5
    endloop
  endfacet
  facet normal -0.815505 0.57875 0
    outer loop
      vertex -62.111 6.889 -5
      vertex -67 0 5
      vertex -62.111 6.889 5
    endloop
  endfacet
  facet normal 0 -1 0
    outer loop
      vertex -67 0 5
      vertex -67 0 -5
      vertex -40 0 -5
    endloop
  endfacet
  facet normal 0 -1 0
    outer loop
      vertex -40 0 5
      vertex -67 0 5
      vertex -40 0 -5
    endloop
  endfacet
  facet normal 0 0 -1
    outer loop
      vertex -67 0 -5
      vertex -62.111 6.889 -5
      vertex -40 0 -5
    endloop
  endfacet
  facet normal 0 0 -1
    outer loop
      vertex -53 8 -5
      vertex -62.111 6.889 -5
      vertex -58.111 12.889 -5
    endloop
  endfacet
  facet normal 0 0 -1
    outer loop
      vertex -53 8 -5
      vertex -58.111 12.889 -5
      vertex -55 18 -5
    endloop
  endfacet
  facet normal 0 0 -1
    outer loop
      vertex -53 8 -5
      vertex -55 18 -5
      vertex -49.333 13.667 -5
    endloop
  endfacet
  facet normal 0 0 -1
    outer loop
      vertex -49.333 13.667 -5
      vertex -52.667 22.167 -5
      vertex -51 25.333 -5
    endloop
  endfacet
  facet normal 0 0 -1
    outer loop
      vertex -49.333 13.667 -5
      vertex -51 25.333 -5
      vertex -50 27.5 -5
    endloop
  endfacet
  facet normal 0 0 -1
    outer loop
      vertex -49.333 13.667 -5
      vertex -50 27.5 -5
      vertex -46.333 18.667 -5
    endloop
  endfacet
  facet normal 0 0 -1
    outer loop
      vertex -58.889 38.222 -5
      vertex -67 39 -5
      vertex -55 39 -5
    endloop
  endfacet
  facet normal 0 0 -1
    outer loop
      vertex -62.556 35.889 -5
      vertex -66 32 -5
      vertex -67 39 -5
    endloop
  endfacet
  facet normal 0 0 -1
    outer loop
      vertex -62.556 35.889 -5
      vertex -67 39 -5
      vertex -58.889 38.222 -5
    endloop
  endfacet
  facet normal 0 0 -1
    outer loop
      vertex -55 39 -5
      vertex -67 39 -5
      vertex -65.556 40.889 -5
    endloop
  endfacet
  facet normal 0 0 -1
    outer loop
      vertex -55 39 -5
      vertex -65.556 40.889 -5
      vertex -53.167 38.778 -5
    endloop
  endfacet
  facet normal 0 0 -1
    outer loop
      vertex -53.167 38.778 -5
      vertex -65.556 40.889 -5
      vertex -63.889 42.556 -5
    endloop
  endfacet
  facet normal 0 0 -1
    outer loop
      vertex -53.167 38.778 -5
      vertex -63.889 42.556 -5
      vertex -62 44 -5
    endloop
  endfacet
  facet normal 0 0 -1
    outer loop
      vertex -53.167 38.778 -5
      vertex -62 44 -5
      vertex -51.667 38.111 -5
    endloop
  endfacet
  facet normal 0 0 -1
    outer loop
      vertex -51.667 38.111 -5
      vertex -62 44 -5
      vertex -59.778 45.111 -5
    endloop
  endfacet
  facet normal 0 0 -1
    outer loop
      vertex -51.667 38.111 -5
      vertex -59.778 45.111 -5
      vertex -57.111 45.778 -5
    endloop
  endfacet
  facet normal 0 0 -1
    outer loop
      vertex -51.667 38.111 -5
      vertex -57.111 45.778 -5
      vertex -50.5 37 -5
    endloop
  endfacet
  facet normal 0 0 -1
    outer loop
      vertex -50.5 37 -5
      vertex -57.111 45.778 -5
      vertex -54 46 -5
    endloop
  endfacet
  facet normal 0 0 -1
    outer loop
      vertex -50.5 37 -5
      vertex -54 46 -5
      vertex -49.667 35.556 -5
    endloop
  endfacet
  facet normal 0 0 -1
    outer loop
      vertex -49.667 35.556 -5
      vertex -54 46 -5
      vertex -49.778 45.556 -5
    endloop
  endfacet
  facet normal 0 0 -1
    outer loop
      vertex -49.667 35.556 -5
      vertex -49.778 45.556 -5
      vertex -49.167 33.889 -5
    endloop
  endfacet
  facet normal 0 0 -1
    outer loop
      vertex -44 23 -5
      vertex -49.778 45.556 -5
      vertex -46.444 44.222 -5
    endloop
  endfacet
  facet normal 0 0 -1
    outer loop
      vertex -46.333 18.667 -5
      vertex -49.111 30.611 -5
      vertex -49 32 -5
    endloop
  endfacet
  facet normal 0 0 -1
    outer loop
      vertex -42.333 26.889 -5
      vertex -44 42 -5
      vertex -42.333 39.333 -5
    endloop
  endfacet
  facet normal 0 0 -1
    outer loop
      vertex -41.333 30.556 -5
      vertex -42.333 39.333 -5
      vertex -41.333 36.667 -5
    endloop
  endfacet
  facet normal 0 0 -1
    outer loop
      vertex -44 23 -5
      vertex -44 42 -5
      vertex -42.333 26.889 -5
    endloop
  endfacet
  facet normal 0 0 -1
    outer loop
      vertex -42.333 26.889 -5
      vertex -42.333 39.333 -5
      vertex -41.333 30.556 -5
    endloop
  endfacet
  facet normal 0 0 -1
    outer loop
      vertex -46.333 18.667 -5
      vertex -49 32 -5
      vertex -49.167 33.889 -5
    endloop
  endfacet
  facet normal 0 0 -1
    outer loop
      vertex -44 23 -5
      vertex -46.444 44.222 -5
      vertex -44 42 -5
    endloop
  endfacet
  facet normal 0 0 -1
    outer loop
      vertex -46.333 18.667 -5
      vertex -49.444 29.111 -5
      vertex -49.111 30.611 -5
    endloop
  endfacet
  facet normal 0 0 -1
    outer loop
      vertex -50 27.5 -5
      vertex -49.444 29.111 -5
      vertex -46.333 18.667 -5
    endloop
  endfacet
  facet normal 0 0 -1
    outer loop
      vertex -55 18 -5
      vertex -52.667 22.167 -5
      vertex -49.333 13.667 -5
    endloop
  endfacet
  facet normal 0 0 -1
    outer loop
      vertex -40 0 -5
      vertex -62.111 6.889 -5
      vertex -53 8 -5
    endloop
  endfacet
  facet normal 0 0 -1
    outer loop
      vertex -40 8 -5
      vertex -40 0 -5
      vertex -53 8 -5
    endloop
  endfacet
  facet normal 0 0 -1
    outer loop
      vertex -41.333 30.556 -5
      vertex -41.333 36.667 -5
      vertex -41 34 -5
    endloop
  endfacet
  facet normal 0 0 -1
    outer loop
      vertex -46.333 18.667 -5
      vertex -49.167 33.889 -5
      vertex -49.778 45.556 -5
    endloop
  endfacet
  facet normal 0 0 -1
    outer loop
      vertex -46.333 18.667 -5
      vertex -49.778 45.556 -5
      vertex -44 23 -5
    endloop
  endfacet
  facet normal -0.83205 0.5547 0
    outer loop
      vertex -62.111 6.889 -5
      vertex -62.111 6.889 5
      vertex -58.111 12.889 -5
    endloop
  endfacet
  facet normal -0.83205 0.5547 0
    outer loop
      vertex -58.111 12.889 -5
      vertex -62.111 6.889 5
      vertex -58.111 12.889 5
    endloop
  endfacet
  facet normal 0 0 1
    outer loop
      vertex -62.111 6.889 5
      vertex -67 0 5
      vertex -40 0 5
    endloop
  endfacet
  facet normal 0 0 1
    outer loop
      vertex -53 8 5
      vertex -62.111 6.889 5
      vertex -40 8 5
    endloop
  endfacet
  facet normal 0 0 1
    outer loop
      vertex -40 8 5
      vertex -62.111 6.889 5
      vertex -40 0 5
    endloop
  endfacet
  facet normal 0 0 1
    outer loop
      vertex -49.333 13.667 5
      vertex -62.111 6.889 5
      vertex -53 8 5
    endloop
  endfacet
  facet normal 0 0 1
    outer loop
      vertex -46.333 18.667 5
      vertex -62.111 6.889 5
      vertex -49.333 13.667 5
    endloop
  endfacet
  facet normal 0 0 1
    outer loop
      vertex -44 23 5
      vertex -62.111 6.889 5
      vertex -46.333 18.667 5
    endloop
  endfacet
  facet normal 0 0 1
    outer loop
      vertex -42.333 26.889 5
      vertex -62.111 6.889 5
      vertex -44 23 5
    endloop
  endfacet
  facet normal 0 0 1
    outer loop
      vertex -41.333 30.556 5
      vertex -62.111 6.889 5
      vertex -42.333 26.889 5
    endloop
  endfacet
  facet normal 0 0 1
    outer loop
      vertex -41 34 5
      vertex -62.111 6.889 5
      vertex -41.333 30.556 5
    endloop
  endfacet
  facet normal 0 0 1
    outer loop
      vertex -41.333 36.667 5
      vertex -62.111 6.889 5
      vertex -41 34 5
    endloop
  endfacet
  facet normal 0 0 1
    outer loop
      vertex -66 32 5
      vertex -63.889 42.556 5
      vertex -65.556 40.889 5
    endloop
  endfacet
  facet normal 0 0 1
    outer loop
      vertex -50 27.5 5
      vertex -51 25.333 5
      vertex -42.333 39.333 5
    endloop
  endfacet
  facet normal 0 0 1
    outer loop
      vertex -49.167 33.889 5
      vertex -49 32 5
      vertex -44 42 5
    endloop
  endfacet
  facet normal 0 0 1
    outer loop
      vertex -50.5 37 5
      vertex -49.667 35.556 5
      vertex -46.444 44.222 5
    endloop
  endfacet
  facet normal 0 0 1
    outer loop
      vertex -53.167 38.778 5
      vertex -51.667 38.111 5
      vertex -49.778 45.556 5
    endloop
  endfacet
  facet normal 0 0 1
    outer loop
      vertex -58.889 38.222 5
      vertex -54 46 5
      vertex -57.111 45.778 5
    endloop
  endfacet
  facet normal 0 0 1
    outer loop
      vertex -62.556 35.889 5
      vertex -58.889 38.222 5
      vertex -59.778 45.111 5
    endloop
  endfacet
  facet normal 0 0 1
    outer loop
      vertex -58.889 38.222 5
      vertex -55 39 5
      vertex -54 46 5
    endloop
  endfacet
  facet normal 0 0 1
    outer loop
      vertex -67 39 5
      vertex -66 32 5
      vertex -65.556 40.889 5
    endloop
  endfacet
  facet normal 0 0 1
    outer loop
      vertex -62 44 5
      vertex -62.556 35.889 5
      vertex -59.778 45.111 5
    endloop
  endfacet
  facet normal 0 0 1
    outer loop
      vertex -59.778 45.111 5
      vertex -58.889 38.222 5
      vertex -57.111 45.778 5
    endloop
  endfacet
  facet normal 0 0 1
    outer loop
      vertex -54 46 5
      vertex -55 39 5
      vertex -49.778 45.556 5
    endloop
  endfacet
  facet normal 0 0 1
    outer loop
      vertex -55 39 5
      vertex -53.167 38.778 5
      vertex -49.778 45.556 5
    endloop
  endfacet
  facet normal 0 0 1
    outer loop
      vertex -49.778 45.556 5
      vertex -51.667 38.111 5
      vertex -46.444 44.222 5
    endloop
  endfacet
  facet normal 0 0 1
    outer loop
      vertex -51.667 38.111 5
      vertex -50.5 37 5
      vertex -46.444 44.222 5
    endloop
  endfacet
  facet normal 0 0 1
    outer loop
      vertex -46.444 44.222 5
      vertex -49.667 35.556 5
      vertex -44 42 5
    endloop
  endfacet
  facet normal 0 0 1
    outer loop
      vertex -49.667 35.556 5
      vertex -49.167 33.889 5
      vertex -44 42 5
    endloop
  endfacet
  facet normal 0 0 1
    outer loop
      vertex -44 42 5
      vertex -49 32 5
      vertex -42.333 39.333 5
    endloop
  endfacet
  facet normal 0 0 1
    outer loop
      vertex -49 32 5
      vertex -49.111 30.611 5
      vertex -42.333 39.333 5
    endloop
  endfacet
  facet normal 0 0 1
    outer loop
      vertex -49.111 30.611 5
      vertex -49.444 29.111 5
      vertex -42.333 39.333 5
    endloop
  endfacet
  facet normal 0 0 1
    outer loop
      vertex -49.444 29.111 5
      vertex -50 27.5 5
      vertex -42.333 39.333 5
    endloop
  endfacet
  facet normal 0 0 1
    outer loop
      vertex -42.333 39.333 5
      vertex -51 25.333 5
      vertex -41.333 36.667 5
    endloop
  endfacet
  facet normal 0 0 1
    outer loop
      vertex -51 25.333 5
      vertex -52.667 22.167 5
      vertex -41.333 36.667 5
    endloop
  endfacet
  facet normal 0 0 1
    outer loop
      vertex -52.667 22.167 5
      vertex -55 18 5
      vertex -41.333 36.667 5
    endloop
  endfacet
  facet normal 0 0 1
    outer loop
      vertex -55 18 5
      vertex -58.111 12.889 5
      vertex -41.333 36.667 5
    endloop
  endfacet
  facet normal 0 0 1
    outer loop
      vertex -58.111 12.889 5
      vertex -62.111 6.889 5
      vertex -41.333 36.667 5
    endloop
  endfacet
  facet normal 0 0 1
    outer loop
      vertex -66 32 5
      vertex -62 44 5
      vertex -63.889 42.556 5
    endloop
  endfacet
  facet normal 0 0 1
    outer loop
      vertex -66 32 5
      vertex -62.556 35.889 5
      vertex -62 44 5
    endloop
  endfacet
  facet normal 1 0 0
    outer loop
      vertex -40 0 5
      vertex -40 0 -5
      vertex -40 8 -5
    endloop
  endfacet
  facet normal 1 0 0
    outer loop
      vertex -40 8 5
      vertex -40 0 5
      vertex -40 8 -5
    endloop
  endfacet
  facet normal 0 1 0
    outer loop
      vertex -53 8 -5
      vertex -53 8 5
      vertex -40 8 -5
    endloop
  endfacet
  facet normal 0 1 0
    outer loop
      vertex -40 8 -5
      vertex -53 8 5
      vertex -40 8 5
    endloop
  endfacet
  facet normal 0.839562 -0.543264 0
    outer loop
      vertex -49.333 13.667 -5
      vertex -49.333 13.667 5
      vertex -53 8 5
    endloop
  endfacet
  facet normal 0.839562 -0.543264 0
    outer loop
      vertex -53 8 -5
      vertex -49.333 13.667 -5
      vertex -53 8 5
    endloop
  endfacet
  facet normal 0.857493 -0.514496 0
    outer loop
      vertex -46.333 18.667 -5
      vertex -46.333 18.667 5
      vertex -49.333 13.667 5
    endloop
  endfacet
  facet normal 0.857493 -0.514496 0
    outer loop
      vertex -49.333 13.667 -5
      vertex -46.333 18.667 -5
      vertex -49.333 13.667 5
    endloop
  endfacet
  facet normal 0.880484 -0.474076 0
    outer loop
      vertex -44 23 -5
      vertex -44 23 5
      vertex -46.333 18.667 5
    endloop
  endfacet
  facet normal 0.880484 -0.474076 0
    outer loop
      vertex -46.333 18.667 -5
      vertex -44 23 -5
      vertex -46.333 18.667 5
    endloop
  endfacet
  facet normal 0.919121 -0.393976 0
    outer loop
      vertex -42.333 26.889 -5
      vertex -42.333 26.889 5
      vertex -44 23 5
    endloop
  endfacet
  facet normal 0.919121 -0.393976 0
    outer loop
      vertex -44 23 -5
      vertex -42.333 26.889 -5
      vertex -44 23 5
    endloop
  endfacet
  facet normal 0.96477 -0.263095 0
    outer loop
      vertex -41.333 30.556 -5
      vertex -41.333 30.556 5
      vertex -42.333 26.889 5
    endloop
  endfacet
  facet normal 0.96477 -0.263095 0
    outer loop
      vertex -42.333 26.889 -5
      vertex -41.333 30.556 -5
      vertex -42.333 26.889 5
    endloop
  endfacet
  facet normal 0.995358 -0.0962411 0
    outer loop
      vertex -41 34 -5
      vertex -41 34 5
      vertex -41.333 30.556 5
    endloop
  endfacet
  facet normal 0.995358 -0.0962411 0
    outer loop
      vertex -41.333 30.556 -5
      vertex -41 34 -5
      vertex -41.333 30.556 5
    endloop
  endfacet
  facet normal 0.992295 0.123897 0
    outer loop
      vertex -41.333 36.667 5
      vertex -41 34 5
      vertex -41 34 -5
    endloop
  endfacet
  facet normal 0.992295 0.123897 0
    outer loop
      vertex -41.333 36.667 -5
      vertex -41.333 36.667 5
      vertex -41 34 -5
    endloop
  endfacet
  facet normal 0.9363 0.3512 0
    outer loop
      vertex -42.333 39.333 5
      vertex -41.333 36.667 5
      vertex -41.333 36.667 -5
    endloop
  endfacet
  facet normal 0.9363 0.3512 0
    outer loop
      vertex -42.333 39.333 -5
      vertex -42.333 39.333 5
      vertex -41.333 36.667 -5
    endloop
  endfacet
  facet normal 0.84798 0.530028 0
    outer loop
      vertex -44 42 5
      vertex -42.333 39.333 5
      vertex -42.333 39.333 -5
    endloop
  endfacet
  facet normal 0.84798 0.530028 0
    outer loop
      vertex -44 42 -5
      vertex -44 42 5
      vertex -42.333 39.333 -5
    endloop
  endfacet
  facet normal 0.672703 0.739913 0
    outer loop
      vertex -44 42 5
      vertex -44 42 -5
      vertex -46.444 44.222 5
    endloop
  endfacet
  facet normal 0.672703 0.739913 0
    outer loop
      vertex -46.444 44.222 5
      vertex -44 42 -5
      vertex -46.444 44.222 -5
    endloop
  endfacet
  facet normal 0.371487 0.928438 0
    outer loop
      vertex -46.444 44.222 5
      vertex -46.444 44.222 -5
      vertex -49.778 45.556 5
    endloop
  endfacet
  facet normal 0.371487 0.928438 0
    outer loop
      vertex -49.778 45.556 5
      vertex -46.444 44.222 -5
      vertex -49.778 45.556 -5
    endloop
  endfacet
  facet normal 0.104587 0.994516 0
    outer loop
      vertex -49.778 45.556 5
      vertex -49.778 45.556 -5
      vertex -54 46 5
    endloop
  endfacet
  facet normal 0.104587 0.994516 0
    outer loop
      vertex -54 46 5
      vertex -49.778 45.556 -5
      vertex -54 46 -5
    endloop
  endfacet
  facet normal -0.0711787 0.997464 0
    outer loop
      vertex -54 46 5
      vertex -54 46 -5
      vertex -57.111 45.778 5
    endloop
  endfacet
  facet normal -0.0711787 0.997464 0
    outer loop
      vertex -57.111 45.778 5
      vertex -54 46 -5
      vertex -57.111 45.778 -5
    endloop
  endfacet
  facet normal -0.242621 0.970121 0
    outer loop
      vertex -57.111 45.778 5
      vertex -57.111 45.778 -5
      vertex -59.778 45.111 5
    endloop
  endfacet
  facet normal -0.242621 0.970121 0
    outer loop
      vertex -59.778 45.111 5
      vertex -57.111 45.778 -5
      vertex -59.778 45.111 -5
    endloop
  endfacet
  facet normal -0.447214 0.894427 0
    outer loop
      vertex -59.778 45.111 5
      vertex -59.778 45.111 -5
      vertex -62 44 5
    endloop
  endfacet
  facet normal -0.447214 0.894427 0
    outer loop
      vertex -62 44 5
      vertex -59.778 45.111 -5
      vertex -62 44 -5
    endloop
  endfacet
  facet normal -0.60731 0.794465 0
    outer loop
      vertex -62 44 5
      vertex -62 44 -5
      vertex -63.889 42.556 5
    endloop
  endfacet
  facet normal -0.60731 0.794465 0
    outer loop
      vertex -63.889 42.556 5
      vertex -62 44 -5
      vertex -63.889 42.556 -5
    endloop
  endfacet
  facet normal -0.707107 0.707107 0
    outer loop
      vertex -63.889 42.556 5
      vertex -63.889 42.556 -5
      vertex -65.556 40.889 5
    endloop
  endfacet
  facet normal -0.707107 0.707107 0
    outer loop
      vertex -65.556 40.889 5
      vertex -63.889 42.556 -5
      vertex -65.556 40.889 -5
    endloop
  endfacet
  facet normal -0.794465 0.60731 0
    outer loop
      vertex -65.556 40.889 5
      vertex -65.556 40.889 -5
      vertex -67 39 5
    endloop
  endfacet
  facet normal -0.794465 0.60731 0
    outer loop
      vertex -67 39 5
      vertex -65.556 40.889 -5
      vertex -67 39 -5
    endloop
  endfacet
  facet normal -0.989949 -0.141421 0
    outer loop
      vertex -67 39 -5
      vertex -66 32 -5
      vertex -67 39 5
    endloop
  endfacet
  facet normal -0.989949 -0.141421 0
    outer loop
      vertex -67 39 5
      vertex -66 32 -5
      vertex -66 32 5
    endloop
  endfacet
  facet normal 0.74864 -0.662977 0
    outer loop
      vertex -66 32 5
      vertex -66 32 -5
      vertex -62.556 35.889 -5
    endloop
  endfacet
  facet normal 0.74864 -0.662977 0
    outer loop
      vertex -62.556 35.889 5
      vertex -66 32 5
      vertex -62.556 35.889 -5
    endloop
  endfacet
  facet normal 0.536786 -0.843718 0
    outer loop
      vertex -62.556 35.889 5
      vertex -62.556 35.889 -5
      vertex -58.889 38.222 -5
    endloop
  endfacet
  facet normal 0.536786 -0.843718 0
    outer loop
      vertex -58.889 38.222 5
      vertex -62.556 35.889 5
      vertex -58.889 38.222 -5
    endloop
  endfacet
  facet normal 0.196165 -0.980571 0
    outer loop
      vertex -58.889 38.222 5
      vertex -58.889 38.222 -5
      vertex -55 39 -5
    endloop
  endfacet
  facet normal 0.196165 -0.980571 0
    outer loop
      vertex -55 39 5
      vertex -58.889 38.222 5
      vertex -55 39 -5
    endloop
  endfacet
  facet normal -0.120234 -0.992746 0
    outer loop
      vertex -55 39 5
      vertex -55 39 -5
      vertex -53.167 38.778 -5
    endloop
  endfacet
  facet normal -0.120234 -0.992746 0
    outer loop
      vertex -53.167 38.778 5
      vertex -55 39 5
      vertex -53.167 38.778 -5
    endloop
  endfacet
  facet normal -0.406308 -0.913736 0
    outer loop
      vertex -53.167 38.778 5
      vertex -53.167 38.778 -5
      vertex -51.667 38.111 -5
    endloop
  endfacet
  facet normal -0.406308 -0.913736 0
    outer loop
      vertex -51.667 38.111 5
      vertex -53.167 38.778 5
      vertex -51.667 38.111 -5
    endloop
  endfacet
  facet normal -0.689516 -0.724271 0
    outer loop
      vertex -51.667 38.111 5
      vertex -51.667 38.111 -5
      vertex -50.5 37 -5
    endloop
  endfacet
  facet normal -0.689516 -0.724271 0
    outer loop
      vertex -50.5 37 5
      vertex -51.667 38.111 5
      vertex -50.5 37 -5
    endloop
  endfacet
  facet normal -0.866206 -0.499688 0
    outer loop
      vertex -50.5 37 -5
      vertex -49.667 35.556 -5
      vertex -50.5 37 5
    endloop
  endfacet
  facet normal -0.866206 -0.499688 0
    outer loop
      vertex -50.5 37 5
      vertex -49.667 35.556 -5
      vertex -49.667 35.556 5
    endloop
  endfacet
  facet normal -0.957842 -0.287295 0
    outer loop
      vertex -49.667 35.556 -5
      vertex -49.167 33.889 -5
      vertex -49.667 35.556 5
    endloop
  endfacet
  facet normal -0.957842 -0.287295 0
    outer loop
      vertex -49.667 35.556 5
      vertex -49.167 33.889 -5
      vertex -49.167 33.889 5
    endloop
  endfacet
  facet normal -0.996115 -0.0880631 0
    outer loop
      vertex -49.167 33.889 -5
      vertex -49 32 -5
      vertex -49.167 33.889 5
    endloop
  endfacet
  facet normal -0.996115 -0.0880631 0
    outer loop
      vertex -49.167 33.889 5
      vertex -49 32 -5
      vertex -49 32 5
    endloop
  endfacet
  facet normal -0.996822 0.0796597 0
    outer loop
      vertex -49.111 30.611 -5
      vertex -49.111 30.611 5
      vertex -49 32 -5
    endloop
  endfacet
  facet normal -0.996822 0.0796597 0
    outer loop
      vertex -49 32 -5
      vertex -49.111 30.611 5
      vertex -49 32 5
    endloop
  endfacet
  facet normal -0.976233 0.216724 0
    outer loop
      vertex -49.444 29.111 -5
      vertex -49.444 29.111 5
      vertex -49.111 30.611 -5
    endloop
  endfacet
  facet normal -0.976233 0.216724 0
    outer loop
      vertex -49.111 30.611 -5
      vertex -49.444 29.111 5
      vertex -49.111 30.611 5
    endloop
  endfacet
  facet normal -0.945286 0.326244 0
    outer loop
      vertex -50 27.5 -5
      vertex -50 27.5 5
      vertex -49.444 29.111 -5
    endloop
  endfacet
  facet normal -0.945286 0.326244 0
    outer loop
      vertex -49.444 29.111 -5
      vertex -50 27.5 5
      vertex -49.444 29.111 5
    endloop
  endfacet
  facet normal -0.907984 0.419005 0
    outer loop
      vertex -51 25.333 -5
      vertex -51 25.333 5
      vertex -50 27.5 -5
    endloop
  endfacet
  facet normal -0.907984 0.419005 0
    outer loop
      vertex -50 27.5 -5
      vertex -51 25.333 5
      vertex -50 27.5 5
    endloop
  endfacet
  facet normal -0.884839 0.465896 0
    outer loop
      vertex -52.667 22.167 -5
      vertex -52.667 22.167 5
      vertex -51 25.333 -5
    endloop
  endfacet
  facet normal -0.884839 0.465896 0
    outer loop
      vertex -51 25.333 -5
      vertex -52.667 22.167 5
      vertex -51 25.333 5
    endloop
  endfacet
  facet normal -0.872552 0.48852 0
    outer loop
      vertex -55 18 -5
      vertex -55 18 5
      vertex -52.667 22.167 -5
    endloop
  endfacet
  facet normal -0.872552 0.48852 0
    outer loop
      vertex -52.667 22.167 -5
      vertex -55 18 5
      vertex -52.667 22.167 5
    endloop
  endfacet
  facet normal -0.854202 0.519942 0
    outer loop
      vertex -58.111 12.889 -5
      vertex -58.111 12.889 5
      vertex -55 18 -5
    endloop
  endfacet
  facet normal -0.854202 0.519942 0
    outer loop
      vertex -55 18 -5
      vertex -58.111 12.889 5
      vertex -55 18 5
    endloop
  endfacet
  facet normal -0.995378 0.0960329 0
    outer loop
      vertex -30.389 28.333 5
      vertex -30.389 28.333 -5
      vertex -31 22 5
    endloop
  endfacet
  facet normal -0.995378 0.0960329 0
    outer loop
      vertex -31 22 5
      vertex -30.389 28.333 -5
      vertex -31 22 -5
    endloop
  endfacet
  facet normal -0.996101 -0.0882179 0
    outer loop
      vertex -30.444 15.722 5
      vertex -31 22 5
      vertex -30.444 15.722 -5
    endloop
  endfacet
  facet normal -0.996101 -0.0882179 0
    outer loop
      vertex -30.444 15.722 -5
      vertex -31 22 5
      vertex -31 22 -5
    endloop
  endfacet
  facet normal 0 0 -1
    outer loop
      vertex -31 22 -5
      vertex -30.389 28.333 -5
      vertex -30.444 15.722 -5
    endloop
  endfacet
  facet normal 0 0 -1
    outer loop
      vertex -30.444 15.722 -5
      vertex -30.389 28.333 -5
      vertex -28.556 34 -5
    endloop
  endfacet
  facet normal 0 0 -1
    outer loop
      vertex -30.444 15.722 -5
      vertex -28.556 34 -5
      vertex -25.5 39 -5
    endloop
  endfacet
  facet normal 0 0 -1
    outer loop
      vertex -30.444 15.722 -5
      vertex -25.5 39 -5
      vertex -21.556 42.889 -5
    endloop
  endfacet
  facet normal 0 0 -1
    outer loop
      vertex -30.444 15.722 -5
      vertex -21.556 42.889 -5
      vertex -17.056 45.222 -5
    endloop
  endfacet
  facet normal 0 0 -1
    outer loop
      vertex -20 34 -5
      vertex -17.056 45.222 -5
      vertex -12 46 -5
    endloop
  endfacet
  facet normal 0 0 -1
    outer loop
      vertex -15.111 37.556 -5
      vertex -12 46 -5
      vertex -7 45.278 -5
    endloop
  endfacet
  facet normal 0 0 -1
    outer loop
      vertex -9.444 37.556 -5
      vertex -7 45.278 -5
      vertex -2.667 43.111 -5
    endloop
  endfacet
  facet normal 0 0 -1
    outer loop
      vertex -7.111 36.222 -5
      vertex -2.667 43.111 -5
      vertex 1 39.5 -5
    endloop
  endfacet
  facet normal 0 0 -1
    outer loop
      vertex -3.333 31 -5
      vertex 1 39.5 -5
      vertex 3.778 34.778 -5
    endloop
  endfacet
  facet normal 0 0 -1
    outer loop
      vertex -2.333 27.333 -5
      vertex 3.778 34.778 -5
      vertex 5.444 29.278 -5
    endloop
  endfacet
  facet normal 0 0 -1
    outer loop
      vertex -2 23 -5
      vertex 5.444 29.278 -5
      vertex 6 23 -5
    endloop
  endfacet
  facet normal 0 0 -1
    outer loop
      vertex -2.333 17.556 -5
      vertex 6 23 -5
      vertex 5.444 16.167 -5
    endloop
  endfacet
  facet normal 0 0 -1
    outer loop
      vertex -3.333 13.222 -5
      vertex 5.444 16.167 -5
      vertex 3.778 10.333 -5
    endloop
  endfacet
  facet normal 0 0 -1
    outer loop
      vertex -5 10 -5
      vertex 3.778 10.333 -5
      vertex 1 5.5 -5
    endloop
  endfacet
  facet normal 0 0 -1
    outer loop
      vertex -9.889 6.444 -5
      vertex 1 5.5 -5
      vertex -2.778 1.889 -5
    endloop
  endfacet
  facet normal 0 0 -1
    outer loop
      vertex -15.556 6.444 -5
      vertex -2.778 1.889 -5
      vertex -7.444 -0.278 -5
    endloop
  endfacet
  facet normal 0 0 -1
    outer loop
      vertex -30.444 15.722 -5
      vertex -7.444 -0.278 -5
      vertex -13 -1 -5
    endloop
  endfacet
  facet normal 0 0 -1
    outer loop
      vertex -30.444 15.722 -5
      vertex -13 -1 -5
      vertex -18 -0.278 -5
    endloop
  endfacet
  facet normal 0 0 -1
    outer loop
      vertex -30.444 15.722 -5
      vertex -18 -0.278 -5
      vertex -22.333 1.889 -5
    endloop
  endfacet
  facet normal 0 0 -1
    outer loop
      vertex -30.444 15.722 -5
      vertex -22.333 1.889 -5
      vertex -26 5.5 -5
    endloop
  endfacet
  facet normal 0 0 -1
    outer loop
      vertex -30.444 15.722 -5
      vertex -26 5.5 -5
      vertex -28.778 10.222 -5
    endloop
  endfacet
  facet normal 0 0 -1
    outer loop
      vertex -22.667 17.111 -5
      vertex -30.444 15.722 -5
      vertex -23 22 -5
    endloop
  endfacet
  facet normal 0 0 -1
    outer loop
      vertex -21.667 13.111 -5
      vertex -30.444 15.722 -5
      vertex -22.667 17.111 -5
    endloop
  endfacet
  facet normal 0 0 -1
    outer loop
      vertex -5 10 -5
      vertex 1 5.5 -5
      vertex -7.222 7.778 -5
    endloop
  endfacet
  facet normal 0 0 -1
    outer loop
      vertex -20 10 -5
      vertex -30.444 15.722 -5
      vertex -21.667 13.111 -5
    endloop
  endfacet
  facet normal 0 0 -1
    outer loop
      vertex -15.556 6.444 -5
      vertex -7.444 -0.278 -5
      vertex -17.889 7.778 -5
    endloop
  endfacet
  facet normal 0 0 -1
    outer loop
      vertex -30.444 15.722 -5
      vertex -20 10 -5
      vertex -17.889 7.778 -5
    endloop
  endfacet
  facet normal 0 0 -1
    outer loop
      vertex -30.444 15.722 -5
      vertex -17.889 7.778 -5
      vertex -7.444 -0.278 -5
    endloop
  endfacet
  facet normal 0 0 -1
    outer loop
      vertex -13 6 -5
      vertex -2.778 1.889 -5
      vertex -15.556 6.444 -5
    endloop
  endfacet
  facet normal 0 0 -1
    outer loop
      vertex -9.889 6.444 -5
      vertex -2.778 1.889 -5
      vertex -13 6 -5
    endloop
  endfacet
  facet normal 0 0 -1
    outer loop
      vertex -7.222 7.778 -5
      vertex 1 5.5 -5
      vertex -9.889 6.444 -5
    endloop
  endfacet
  facet normal 0 0 -1
    outer loop
      vertex -3.333 13.222 -5
      vertex 3.778 10.333 -5
      vertex -5 10 -5
    endloop
  endfacet
  facet normal 0 0 -1
    outer loop
      vertex -2 23 -5
      vertex 6 23 -5
      vertex -2.333 17.556 -5
    endloop
  endfacet
  facet normal 0 0 -1
    outer loop
      vertex -2.333 17.556 -5
      vertex 5.444 16.167 -5
      vertex -3.333 13.222 -5
    endloop
  endfacet
  facet normal 0 0 -1
    outer loop
      vertex -5 34 -5
      vertex 1 39.5 -5
      vertex -3.333 31 -5
    endloop
  endfacet
  facet normal 0 0 -1
    outer loop
      vertex -9.444 37.556 -5
      vertex -2.667 43.111 -5
      vertex -7.111 36.222 -5
    endloop
  endfacet
  facet normal 0 0 -1
    outer loop
      vertex -12 38 -5
      vertex -7 45.278 -5
      vertex -9.444 37.556 -5
    endloop
  endfacet
  facet normal 0 0 -1
    outer loop
      vertex -3.333 31 -5
      vertex 3.778 34.778 -5
      vertex -2.333 27.333 -5
    endloop
  endfacet
  facet normal 0 0 -1
    outer loop
      vertex -17.778 36.222 -5
      vertex -12 46 -5
      vertex -15.111 37.556 -5
    endloop
  endfacet
  facet normal 0 0 -1
    outer loop
      vertex -30.444 15.722 -5
      vertex -17.056 45.222 -5
      vertex -20 34 -5
    endloop
  endfacet
  facet normal 0 0 -1
    outer loop
      vertex -22.667 26.889 -5
      vertex -30.444 15.722 -5
      vertex -21.667 30.889 -5
    endloop
  endfacet
  facet normal 0 0 -1
    outer loop
      vertex -30.444 15.722 -5
      vertex -20 34 -5
      vertex -21.667 30.889 -5
    endloop
  endfacet
  facet normal 0 0 -1
    outer loop
      vertex -7.111 36.222 -5
      vertex 1 39.5 -5
      vertex -5 34 -5
    endloop
  endfacet
  facet normal 0 0 -1
    outer loop
      vertex -23 22 -5
      vertex -30.444 15.722 -5
      vertex -22.667 26.889 -5
    endloop
  endfacet
  facet normal 0 0 -1
    outer loop
      vertex -20 34 -5
      vertex -12 46 -5
      vertex -17.778 36.222 -5
    endloop
  endfacet
  facet normal 0 0 -1
    outer loop
      vertex -15.111 37.556 -5
      vertex -7 45.278 -5
      vertex -12 38 -5
    endloop
  endfacet
  facet normal 0 0 -1
    outer loop
      vertex -2.333 27.333 -5
      vertex 5.444 29.278 -5
      vertex -2 23 -5
    endloop
  endfacet
  facet normal 0 0 1
    outer loop
      vertex -30.389 28.333 5
      vertex -31 22 5
      vertex -30.444 15.722 5
    endloop
  endfacet
  facet normal 0 0 1
    outer loop
      vertex -26 5.5 5
      vertex -30.389 28.333 5
      vertex -28.778 10.222 5
    endloop
  endfacet
  facet normal 0 0 1
    outer loop
      vertex -28.778 10.222 5
      vertex -30.389 28.333 5
      vertex -30.444 15.722 5
    endloop
  endfacet
  facet normal 0 0 1
    outer loop
      vertex -22.333 1.889 5
      vertex -30.389 28.333 5
      vertex -26 5.5 5
    endloop
  endfacet
  facet normal 0 0 1
    outer loop
      vertex -18 -0.278 5
      vertex -30.389 28.333 5
      vertex -22.333 1.889 5
    endloop
  endfacet
  facet normal 0 0 1
    outer loop
      vertex -20 10 5
      vertex -30.389 28.333 5
      vertex -18 -0.278 5
    endloop
  endfacet
  facet normal 0 0 1
    outer loop
      vertex -22.667 26.889 5
      vertex -21.667 30.889 5
      vertex -30.389 28.333 5
    endloop
  endfacet
  facet normal 0 0 1
    outer loop
      vertex -21.667 30.889 5
      vertex -20 34 5
      vertex -30.389 28.333 5
    endloop
  endfacet
  facet normal 0 0 1
    outer loop
      vertex -2.333 27.333 5
      vertex -2 23 5
      vertex 6 23 5
    endloop
  endfacet
  facet normal 0 0 1
    outer loop
      vertex -12 46 5
      vertex -30.389 28.333 5
      vertex -7 45.278 5
    endloop
  endfacet
  facet normal 0 0 1
    outer loop
      vertex -17.056 45.222 5
      vertex -30.389 28.333 5
      vertex -12 46 5
    endloop
  endfacet
  facet normal 0 0 1
    outer loop
      vertex -21.556 42.889 5
      vertex -30.389 28.333 5
      vertex -17.056 45.222 5
    endloop
  endfacet
  facet normal 0 0 1
    outer loop
      vertex -25.5 39 5
      vertex -30.389 28.333 5
      vertex -21.556 42.889 5
    endloop
  endfacet
  facet normal 0 0 1
    outer loop
      vertex -28.556 34 5
      vertex -30.389 28.333 5
      vertex -25.5 39 5
    endloop
  endfacet
  facet normal 0 0 1
    outer loop
      vertex -17.889 7.778 5
      vertex -20 10 5
      vertex -13 -1 5
    endloop
  endfacet
  facet normal 0 0 1
    outer loop
      vertex -2.333 17.556 5
      vertex -3.333 13.222 5
      vertex 3.778 10.333 5
    endloop
  endfacet
  facet normal 0 0 1
    outer loop
      vertex -3.333 31 5
      vertex -2.333 27.333 5
      vertex 5.444 29.278 5
    endloop
  endfacet
  facet normal 0 0 1
    outer loop
      vertex -17.778 36.222 5
      vertex -30.389 28.333 5
      vertex -20 34 5
    endloop
  endfacet
  facet normal 0 0 1
    outer loop
      vertex -15.111 37.556 5
      vertex -12 38 5
      vertex -2.667 43.111 5
    endloop
  endfacet
  facet normal 0 0 1
    outer loop
      vertex -7 45.278 5
      vertex -30.389 28.333 5
      vertex -17.778 36.222 5
    endloop
  endfacet
  facet normal 0 0 1
    outer loop
      vertex -7 45.278 5
      vertex -15.111 37.556 5
      vertex -2.667 43.111 5
    endloop
  endfacet
  facet normal 0 0 1
    outer loop
      vertex -2.667 43.111 5
      vertex -12 38 5
      vertex 1 39.5 5
    endloop
  endfacet
  facet normal 0 0 1
    outer loop
      vertex -17.778 36.222 5
      vertex -15.111 37.556 5
      vertex -7 45.278 5
    endloop
  endfacet
  facet normal 0 0 1
    outer loop
      vertex -12 38 5
      vertex -9.444 37.556 5
      vertex 1 39.5 5
    endloop
  endfacet
  facet normal 0 0 1
    outer loop
      vertex -9.444 37.556 5
      vertex -7.111 36.222 5
      vertex 1 39.5 5
    endloop
  endfacet
  facet normal 0 0 1
    outer loop
      vertex 1 39.5 5
      vertex -7.111 36.222 5
      vertex 3.778 34.778 5
    endloop
  endfacet
  facet normal 0 0 1
    outer loop
      vertex -7.111 36.222 5
      vertex -5 34 5
      vertex 3.778 34.778 5
    endloop
  endfacet
  facet normal 0 0 1
    outer loop
      vertex 3.778 34.778 5
      vertex -3.333 31 5
      vertex 5.444 29.278 5
    endloop
  endfacet
  facet normal 0 0 1
    outer loop
      vertex 5.444 29.278 5
      vertex -2.333 27.333 5
      vertex 6 23 5
    endloop
  endfacet
  facet normal 0 0 1
    outer loop
      vertex -5 34 5
      vertex -3.333 31 5
      vertex 3.778 34.778 5
    endloop
  endfacet
  facet normal 0 0 1
    outer loop
      vertex 6 23 5
      vertex -2 23 5
      vertex 5.444 16.167 5
    endloop
  endfacet
  facet normal 0 0 1
    outer loop
      vertex 5.444 16.167 5
      vertex -2.333 17.556 5
      vertex 3.778 10.333 5
    endloop
  endfacet
  facet normal 0 0 1
    outer loop
      vertex 3.778 10.333 5
      vertex -3.333 13.222 5
      vertex 1 5.5 5
    endloop
  endfacet
  facet normal 0 0 1
    outer loop
      vertex -9.889 6.444 5
      vertex -13 6 5
      vertex -7.444 -0.278 5
    endloop
  endfacet
  facet normal 0 0 1
    outer loop
      vertex -3.333 13.222 5
      vertex -5 10 5
      vertex 1 5.5 5
    endloop
  endfacet
  facet normal 0 0 1
    outer loop
      vertex -2 23 5
      vertex -2.333 17.556 5
      vertex 5.444 16.167 5
    endloop
  endfacet
  facet normal 0 0 1
    outer loop
      vertex 1 5.5 5
      vertex -7.222 7.778 5
      vertex -2.778 1.889 5
    endloop
  endfacet
  facet normal 0 0 1
    outer loop
      vertex -2.778 1.889 5
      vertex -9.889 6.444 5
      vertex -7.444 -0.278 5
    endloop
  endfacet
  facet normal 0 0 1
    outer loop
      vertex -5 10 5
      vertex -7.222 7.778 5
      vertex 1 5.5 5
    endloop
  endfacet
  facet normal 0 0 1
    outer loop
      vertex -7.444 -0.278 5
      vertex -13 6 5
      vertex -13 -1 5
    endloop
  endfacet
  facet normal 0 0 1
    outer loop
      vertex -13 6 5
      vertex -15.556 6.444 5
      vertex -13 -1 5
    endloop
  endfacet
  facet normal 0 0 1
    outer loop
      vertex -13 -1 5
      vertex -20 10 5
      vertex -18 -0.278 5
    endloop
  endfacet
  facet normal 0 0 1
    outer loop
      vertex -21.667 13.111 5
      vertex -30.389 28.333 5
      vertex -20 10 5
    endloop
  endfacet
  facet normal 0 0 1
    outer loop
      vertex -15.556 6.444 5
      vertex -17.889 7.778 5
      vertex -13 -1 5
    endloop
  endfacet
  facet normal 0 0 1
    outer loop
      vertex -21.667 13.111 5
      vertex -22.667 17.111 5
      vertex -30.389 28.333 5
    endloop
  endfacet
  facet normal 0 0 1
    outer loop
      vertex -22.667 17.111 5
      vertex -23 22 5
      vertex -30.389 28.333 5
    endloop
  endfacet
  facet normal 0 0 1
    outer loop
      vertex -7.222 7.778 5
      vertex -9.889 6.444 5
      vertex -2.778 1.889 5
    endloop
  endfacet
  facet normal 0 0 1
    outer loop
      vertex -23 22 5
      vertex -22.667 26.889 5
      vertex -30.389 28.333 5
    endloop
  endfacet
  facet normal -0.951466 0.307753 0
    outer loop
      vertex -28.556 34 5
      vertex -28.556 34 -5
      vertex -30.389 28.333 5
    endloop
  endfacet
  facet normal -0.951466 0.307753 0
    outer loop
      vertex -30.389 28.333 5
      vertex -28.556 34 -5
      vertex -30.389 28.333 -5
    endloop
  endfacet
  facet normal -0.957057 -0.289901 0
    outer loop
      vertex -28.778 10.222 5
      vertex -30.444 15.722 5
      vertex -28.778 10.222 -5
    endloop
  endfacet
  facet normal -0.957057 -0.289901 0
    outer loop
      vertex -28.778 10.222 -5
      vertex -30.444 15.722 5
      vertex -30.444 15.722 -5
    endloop
  endfacet
  facet normal -0.861906 -0.507068 0
    outer loop
      vertex -26 5.5 5
      vertex -28.778 10.222 5
      vertex -26 5.5 -5
    endloop
  endfacet
  facet normal -0.861906 -0.507068 0
    outer loop
      vertex -26 5.5 -5
      vertex -28.778 10.222 5
      vertex -28.778 10.222 -5
    endloop
  endfacet
  facet normal -0.701645 -0.712526 0
    outer loop
      vertex -22.333 1.889 -5
      vertex -22.333 1.889 5
      vertex -26 5.5 5
    endloop
  endfacet
  facet normal -0.701645 -0.712526 0
    outer loop
      vertex -26 5.5 -5
      vertex -22.333 1.889 -5
      vertex -26 5.5 5
    endloop
  endfacet
  facet normal -0.447296 -0.894386 0
    outer loop
      vertex -18 -0.278 -5
      vertex -18 -0.278 5
      vertex -22.333 1.889 5
    endloop
  endfacet
  facet normal -0.447296 -0.894386 0
    outer loop
      vertex -22.333 1.889 -5
      vertex -18 -0.278 -5
      vertex -22.333 1.889 5
    endloop
  endfacet
  facet normal -0.142918 -0.989735 0
    outer loop
      vertex -13 -1 -5
      vertex -13 -1 5
      vertex -18 -0.278 5
    endloop
  endfacet
  facet normal -0.142918 -0.989735 0
    outer loop
      vertex -18 -0.278 -5
      vertex -13 -1 -5
      vertex -18 -0.278 5
    endloop
  endfacet
  facet normal 0.128866 -0.991662 0
    outer loop
      vertex -7.444 -0.278 -5
      vertex -7.444 -0.278 5
      vertex -13 -1 5
    endloop
  endfacet
  facet normal 0.128866 -0.991662 0
    outer loop
      vertex -13 -1 -5
      vertex -7.444 -0.278 -5
      vertex -13 -1 5
    endloop
  endfacet
  facet normal 0.421214 -0.906961 0
    outer loop
      vertex -2.778 1.889 -5
      vertex -2.778 1.889 5
      vertex -7.444 -0.278 5
    endloop
  endfacet
  facet normal 0.421214 -0.906961 0
    outer loop
      vertex -7.444 -0.278 -5
      vertex -2.778 1.889 -5
      vertex -7.444 -0.278 5
    endloop
  endfacet
  facet normal 0.690949 -0.722904 0
    outer loop
      vertex 1 5.5 -5
      vertex 1 5.5 5
      vertex -2.778 1.889 5
    endloop
  endfacet
  facet normal 0.690949 -0.722904 0
    outer loop
      vertex -2.778 1.889 -5
      vertex 1 5.5 -5
      vertex -2.778 1.889 5
    endloop
  endfacet
  facet normal 0.866982 -0.49834 0
    outer loop
      vertex 3.778 10.333 -5
      vertex 3.778 10.333 5
      vertex 1 5.5 5
    endloop
  endfacet
  facet normal 0.866982 -0.49834 0
    outer loop
      vertex 1 5.5 -5
      vertex 3.778 10.333 -5
      vertex 1 5.5 5
    endloop
  endfacet
  facet normal 0.961561 -0.274591 0
    outer loop
      vertex 5.444 16.167 -5
      vertex 5.444 16.167 5
      vertex 3.778 10.333 5
    endloop
  endfacet
  facet normal 0.961561 -0.274591 0
    outer loop
      vertex 3.778 10.333 -5
      vertex 5.444 16.167 -5
      vertex 3.778 10.333 5
    endloop
  endfacet
  facet normal 0.996706 -0.0811018 0
    outer loop
      vertex 6 23 -5
      vertex 6 23 5
      vertex 5.444 16.167 5
    endloop
  endfacet
  facet normal 0.996706 -0.0811018 0
    outer loop
      vertex 5.444 16.167 -5
      vertex 6 23 -5
      vertex 5.444 16.167 5
    endloop
  endfacet
  facet normal 0.996101 0.0882179 0
    outer loop
      vertex 5.444 29.278 5
      vertex 6 23 5
      vertex 6 23 -5
    endloop
  endfacet
  facet normal 0.996101 0.0882179 0
    outer loop
      vertex 5.444 29.278 -5
      vertex 5.444 29.278 5
      vertex 6 23 -5
    endloop
  endfacet
  facet normal 0.957057 0.289901 0
    outer loop
      vertex 3.778 34.778 5
      vertex 5.444 29.278 5
      vertex 5.444 29.278 -5
    endloop
  endfacet
  facet normal 0.957057 0.289901 0
    outer loop
      vertex 3.778 34.778 -5
      vertex 3.778 34.778 5
      vertex 5.444 29.278 -5
    endloop
  endfacet
  facet normal 0.861906 0.507068 0
    outer loop
      vertex 1 39.5 5
      vertex 3.778 34.778 5
      vertex 3.778 34.778 -5
    endloop
  endfacet
  facet normal 0.861906 0.507068 0
    outer loop
      vertex 1 39.5 -5
      vertex 1 39.5 5
      vertex 3.778 34.778 -5
    endloop
  endfacet
  facet normal 0.701645 0.712526 0
    outer loop
      vertex 1 39.5 5
      vertex 1 39.5 -5
      vertex -2.667 43.111 5
    endloop
  endfacet
  facet normal 0.701645 0.712526 0
    outer loop
      vertex -2.667 43.111 5
      vertex 1 39.5 -5
      vertex -2.667 43.111 -5
    endloop
  endfacet
  facet normal 0.447296 0.894386 0
    outer loop
      vertex -2.667 43.111 5
      vertex -2.667 43.111 -5
      vertex -7 45.278 5
    endloop
  endfacet
  facet normal 0.447296 0.894386 0
    outer loop
      vertex -7 45.278 5
      vertex -2.667 43.111 -5
      vertex -7 45.278 -5
    endloop
  endfacet
  facet normal 0.142918 0.989735 0
    outer loop
      vertex -7 45.278 5
      vertex -7 45.278 -5
      vertex -12 46 5
    endloop
  endfacet
  facet normal 0.142918 0.989735 0
    outer loop
      vertex -12 46 5
      vertex -7 45.278 -5
      vertex -12 46 -5
    endloop
  endfacet
  facet normal -0.152087 0.988367 0
    outer loop
      vertex -12 46 5
      vertex -12 46 -5
      vertex -17.056 45.222 5
    endloop
  endfacet
  facet normal -0.152087 0.988367 0
    outer loop
      vertex -17.056 45.222 5
      vertex -12 46 -5
      vertex -17.056 45.222 -5
    endloop
  endfacet
  facet normal -0.460265 0.887781 0
    outer loop
      vertex -17.056 45.222 5
      vertex -17.056 45.222 -5
      vertex -21.556 42.889 5
    endloop
  endfacet
  facet normal -0.460265 0.887781 0
    outer loop
      vertex -21.556 42.889 5
      vertex -17.056 45.222 -5
      vertex -21.556 42.889 -5
    endloop
  endfacet
  facet normal -0.702124 0.712054 0
    outer loop
      vertex -21.556 42.889 5
      vertex -21.556 42.889 -5
      vertex -25.5 39 5
    endloop
  endfacet
  facet normal -0.702124 0.712054 0
    outer loop
      vertex -25.5 39 5
      vertex -21.556 42.889 -5
      vertex -25.5 39 -5
    endloop
  endfacet
  facet normal -0.853248 0.521505 0
    outer loop
      vertex -25.5 39 5
      vertex -25.5 39 -5
      vertex -28.556 34 5
    endloop
  endfacet
  facet normal -0.853248 0.521505 0
    outer loop
      vertex -28.556 34 5
      vertex -25.5 39 -5
      vertex -28.556 34 -5
    endloop
  endfacet
  facet normal 0.997688 0.0679546 0
    outer loop
      vertex -22.667 17.111 -5
      vertex -23 22 -5
      vertex -23 22 5
    endloop
  endfacet
  facet normal 0.997688 0.0679546 0
    outer loop
      vertex -22.667 17.111 5
      vertex -22.667 17.111 -5
      vertex -23 22 5
    endloop
  endfacet
  facet normal 0.997688 -0.0679546 0
    outer loop
      vertex -23 22 5
      vertex -23 22 -5
      vertex -22.667 26.889 -5
    endloop
  endfacet
  facet normal 0.997688 -0.0679546 0
    outer loop
      vertex -22.667 26.889 5
      vertex -23 22 5
      vertex -22.667 26.889 -5
    endloop
  endfacet
  facet normal 0.970143 -0.242536 0
    outer loop
      vertex -22.667 26.889 5
      vertex -22.667 26.889 -5
      vertex -21.667 30.889 -5
    endloop
  endfacet
  facet normal 0.970143 -0.242536 0
    outer loop
      vertex -21.667 30.889 5
      vertex -22.667 26.889 5
      vertex -21.667 30.889 -5
    endloop
  endfacet
  facet normal 0.881434 -0.472308 0
    outer loop
      vertex -21.667 30.889 5
      vertex -21.667 30.889 -5
      vertex -20 34 -5
    endloop
  endfacet
  facet normal 0.881434 -0.472308 0
    outer loop
      vertex -20 34 5
      vertex -21.667 30.889 5
      vertex -20 34 -5
    endloop
  endfacet
  facet normal 0.707107 -0.707107 0
    outer loop
      vertex -20 34 5
      vertex -20 34 -5
      vertex -17.778 36.222 -5
    endloop
  endfacet
  facet normal 0.707107 -0.707107 0
    outer loop
      vertex -17.778 36.222 5
      vertex -20 34 5
      vertex -17.778 36.222 -5
    endloop
  endfacet
  facet normal 0.447348 -0.89436 0
    outer loop
      vertex -17.778 36.222 5
      vertex -17.778 36.222 -5
      vertex -15.111 37.556 -5
    endloop
  endfacet
  facet normal 0.447348 -0.89436 0
    outer loop
      vertex -15.111 37.556 5
      vertex -17.778 36.222 5
      vertex -15.111 37.556 -5
    endloop
  endfacet
  facet normal 0.141288 -0.989969 0
    outer loop
      vertex -15.111 37.556 5
      vertex -15.111 37.556 -5
      vertex -12 38 -5
    endloop
  endfacet
  facet normal 0.141288 -0.989969 0
    outer loop
      vertex -12 38 5
      vertex -15.111 37.556 5
      vertex -12 38 -5
    endloop
  endfacet
  facet normal -0.171146 -0.985246 0
    outer loop
      vertex -12 38 5
      vertex -12 38 -5
      vertex -9.444 37.556 -5
    endloop
  endfacet
  facet normal -0.171146 -0.985246 0
    outer loop
      vertex -9.444 37.556 5
      vertex -12 38 5
      vertex -9.444 37.556 -5
    endloop
  endfacet
  facet normal -0.496379 -0.868106 0
    outer loop
      vertex -9.444 37.556 5
      vertex -9.444 37.556 -5
      vertex -7.111 36.222 -5
    endloop
  endfacet
  facet normal -0.496379 -0.868106 0
    outer loop
      vertex -7.111 36.222 5
      vertex -9.444 37.556 5
      vertex -7.111 36.222 -5
    endloop
  endfacet
  facet normal -0.724983 -0.688767 0
    outer loop
      vertex -7.111 36.222 -5
      vertex -5 34 -5
      vertex -7.111 36.222 5
    endloop
  endfacet
  facet normal -0.724983 -0.688767 0
    outer loop
      vertex -7.111 36.222 5
      vertex -5 34 -5
      vertex -5 34 5
    endloop
  endfacet
  facet normal -0.874116 -0.485717 0
    outer loop
      vertex -5 34 -5
      vertex -3.333 31 -5
      vertex -5 34 5
    endloop
  endfacet
  facet normal -0.874116 -0.485717 0
    outer loop
      vertex -5 34 5
      vertex -3.333 31 -5
      vertex -3.333 31 5
    endloop
  endfacet
  facet normal -0.96477 -0.263095 0
    outer loop
      vertex -3.333 31 -5
      vertex -2.333 27.333 -5
      vertex -3.333 31 5
    endloop
  endfacet
  facet normal -0.96477 -0.263095 0
    outer loop
      vertex -3.333 31 5
      vertex -2.333 27.333 -5
      vertex -2.333 27.333 5
    endloop
  endfacet
  facet normal -0.99706 -0.0766261 0
    outer loop
      vertex -2.333 27.333 -5
      vertex -2 23 -5
      vertex -2.333 27.333 5
    endloop
  endfacet
  facet normal -0.99706 -0.0766261 0
    outer loop
      vertex -2.333 27.333 5
      vertex -2 23 -5
      vertex -2 23 5
    endloop
  endfacet
  facet normal -0.998134 0.0610541 0
    outer loop
      vertex -2.333 17.556 -5
      vertex -2.333 17.556 5
      vertex -2 23 -5
    endloop
  endfacet
  facet normal -0.998134 0.0610541 0
    outer loop
      vertex -2 23 -5
      vertex -2.333 17.556 5
      vertex -2 23 5
    endloop
  endfacet
  facet normal -0.974399 0.224827 0
    outer loop
      vertex -3.333 13.222 -5
      vertex -3.333 13.222 5
      vertex -2.333 17.556 -5
    endloop
  endfacet
  facet normal -0.974399 0.224827 0
    outer loop
      vertex -2.333 17.556 -5
      vertex -3.333 13.222 5
      vertex -2.333 17.556 5
    endloop
  endfacet
  facet normal -0.888167 0.45952 0
    outer loop
      vertex -5 10 -5
      vertex -5 10 5
      vertex -3.333 13.222 -5
    endloop
  endfacet
  facet normal -0.888167 0.45952 0
    outer loop
      vertex -3.333 13.222 -5
      vertex -5 10 5
      vertex -3.333 13.222 5
    endloop
  endfacet
  facet normal -0.707107 0.707107 0
    outer loop
      vertex -7.222 7.778 -5
      vertex -7.222 7.778 5
      vertex -5 10 -5
    endloop
  endfacet
  facet normal -0.707107 0.707107 0
    outer loop
      vertex -5 10 -5
      vertex -7.222 7.778 5
      vertex -5 10 5
    endloop
  endfacet
  facet normal -0.447348 0.89436 0
    outer loop
      vertex -9.889 6.444 -5
      vertex -9.889 6.444 5
      vertex -7.222 7.778 -5
    endloop
  endfacet
  facet normal -0.447348 0.89436 0
    outer loop
      vertex -7.222 7.778 -5
      vertex -9.889 6.444 5
      vertex -7.222 7.778 5
    endloop
  endfacet
  facet normal -0.141288 0.989969 0
    outer loop
      vertex -13 6 -5
      vertex -13 6 5
      vertex -9.889 6.444 -5
    endloop
  endfacet
  facet normal -0.141288 0.989969 0
    outer loop
      vertex -9.889 6.444 -5
      vertex -13 6 5
      vertex -9.889 6.444 5
    endloop
  endfacet
  facet normal 0.171146 0.985246 0
    outer loop
      vertex -15.556 6.444 -5
      vertex -15.556 6.444 5
      vertex -13 6 -5
    endloop
  endfacet
  facet normal 0.171146 0.985246 0
    outer loop
      vertex -13 6 -5
      vertex -15.556 6.444 5
      vertex -13 6 5
    endloop
  endfacet
  facet normal 0.496379 0.868106 0
    outer loop
      vertex -17.889 7.778 -5
      vertex -17.889 7.778 5
      vertex -15.556 6.444 -5
    endloop
  endfacet
  facet normal 0.496379 0.868106 0
    outer loop
      vertex -15.556 6.444 -5
      vertex -17.889 7.778 5
      vertex -15.556 6.444 5
    endloop
  endfacet
  facet normal 0.724983 0.688767 0
    outer loop
      vertex -17.889 7.778 -5
      vertex -20 10 -5
      vertex -20 10 5
    endloop
  endfacet
  facet normal 0.724983 0.688767 0
    outer loop
      vertex -17.889 7.778 5
      vertex -17.889 7.778 -5
      vertex -20 10 5
    endloop
  endfacet
  facet normal 0.881434 0.472308 0
    outer loop
      vertex -20 10 -5
      vertex -21.667 13.111 -5
      vertex -21.667 13.111 5
    endloop
  endfacet
  facet normal 0.881434 0.472308 0
    outer loop
      vertex -20 10 5
      vertex -20 10 -5
      vertex -21.667 13.111 5
    endloop
  endfacet
  facet normal 0.970143 0.242536 0
    outer loop
      vertex -21.667 13.111 -5
      vertex -22.667 17.111 -5
      vertex -22.667 17.111 5
    endloop
  endfacet
  facet normal 0.970143 0.242536 0
    outer loop
      vertex -21.667 13.111 5
      vertex -21.667 13.111 -5
      vertex -22.667 17.111 5
    endloop
  endfacet
  facet normal -0.282166 0.959366 0
    outer loop
      vertex 13 38 -5
      vertex 13 38 5
      vertex 15.125 38.625 -5
    endloop
  endfacet
  facet normal -0.282166 0.959366 0
    outer loop
      vertex 15.125 38.625 -5
      vertex 13 38 5
      vertex 15.125 38.625 5
    endloop
  endfacet
  facet normal -0.989949 -0.141421 0
    outer loop
      vertex 13 38 -5
      vertex 14 31 -5
      vertex 13 38 5
    endloop
  endfacet
  facet normal -0.989949 -0.141421 0
    outer loop
      vertex 13 38 5
      vertex 14 31 -5
      vertex 14 31 5
    endloop
  endfacet
  facet normal 0 0 -1
    outer loop
      vertex 13 38 -5
      vertex 15.125 38.625 -5
      vertex 14 31 -5
    endloop
  endfacet
  facet normal 0 0 -1
    outer loop
      vertex 14 31 -5
      vertex 15.125 38.625 -5
      vertex 17.5 40.5 -5
    endloop
  endfacet
  facet normal 0 0 -1
    outer loop
      vertex 17.5 40.5 -5
      vertex 19.625 42.875 -5
      vertex 14 31 -5
    endloop
  endfacet
  facet normal 0 0 -1
    outer loop
      vertex 19.625 42.875 -5
      vertex 21 45 -5
      vertex 14 31 -5
    endloop
  endfacet
  facet normal 0 0 -1
    outer loop
      vertex 14 31 -5
      vertex 21 45 -5
      vertex 27 45 -5
    endloop
  endfacet
  facet normal 0 0 -1
    outer loop
      vertex 19 33 -5
      vertex 27 45 -5
      vertex 27 0 -5
    endloop
  endfacet
  facet normal 0 0 -1
    outer loop
      vertex 14 31 -5
      vertex 27 45 -5
      vertex 19 33 -5
    endloop
  endfacet
  facet normal 0 0 -1
    outer loop
      vertex 14 31 -5
      vertex 19 33 -5
      vertex 16.75 31.5 -5
    endloop
  endfacet
  facet normal 0 0 -1
    outer loop
      vertex 19 33 -5
      vertex 27 0 -5
      vertex 19 0 -5
    endloop
  endfacet
  facet normal -0.619644 0.784883 0
    outer loop
      vertex 15.125 38.625 -5
      vertex 15.125 38.625 5
      vertex 17.5 40.5 -5
    endloop
  endfacet
  facet normal -0.619644 0.784883 0
    outer loop
      vertex 17.5 40.5 -5
      vertex 15.125 38.625 5
      vertex 17.5 40.5 5
    endloop
  endfacet
  facet normal 0 0 1
    outer loop
      vertex 15.125 38.625 5
      vertex 13 38 5
      vertex 14 31 5
    endloop
  endfacet
  facet normal 0 0 1
    outer loop
      vertex 19 33 5
      vertex 15.125 38.625 5
      vertex 16.75 31.5 5
    endloop
  endfacet
  facet normal 0 0 1
    outer loop
      vertex 16.75 31.5 5
      vertex 15.125 38.625 5
      vertex 14 31 5
    endloop
  endfacet
  facet normal 0 0 1
    outer loop
      vertex 27 45 5
      vertex 15.125 38.625 5
      vertex 19 33 5
    endloop
  endfacet
  facet normal 0 0 1
    outer loop
      vertex 27 0 5
      vertex 19 33 5
      vertex 19 0 5
    endloop
  endfacet
  facet normal 0 0 1
    outer loop
      vertex 27 45 5
      vertex 19 33 5
      vertex 27 0 5
    endloop
  endfacet
  facet normal 0 0 1
    outer loop
      vertex 21 45 5
      vertex 19.625 42.875 5
      vertex 27 45 5
    endloop
  endfacet
  facet normal 0 0 1
    outer loop
      vertex 19.625 42.875 5
      vertex 17.5 40.5 5
      vertex 27 45 5
    endloop
  endfacet
  facet normal 0 0 1
    outer loop
      vertex 17.5 40.5 5
      vertex 15.125 38.625 5
      vertex 27 45 5
    endloop
  endfacet
  facet normal 0.178885 -0.98387 0
    outer loop
      vertex 16.75 31.5 -5
      vertex 16.75 31.5 5
      vertex 14 31 5
    endloop
  endfacet
  facet normal 0.178885 -0.98387 0
    outer loop
      vertex 14 31 -5
      vertex 16.75 31.5 -5
      vertex 14 31 5
    endloop
  endfacet
  facet normal 0.5547 -0.83205 0
    outer loop
      vertex 19 33 -5
      vertex 19 33 5
      vertex 16.75 31.5 5
    endloop
  endfacet
  facet normal 0.5547 -0.83205 0
    outer loop
      vertex 16.75 31.5 -5
      vertex 19 33 -5
      vertex 16.75 31.5 5
    endloop
  endfacet
  facet normal -1 0 0
    outer loop
      vertex 19 0 -5
      vertex 19 0 5
      vertex 19 33 -5
    endloop
  endfacet
  facet normal -1 0 0
    outer loop
      vertex 19 33 -5
      vertex 19 0 5
      vertex 19 33 5
    endloop
  endfacet
  facet normal 0 -1 0
    outer loop
      vertex 19 0 5
      vertex 19 0 -5
      vertex 27 0 -5
    endloop
  endfacet
  facet normal 0 -1 0
    outer loop
      vertex 27 0 5
      vertex 19 0 5
      vertex 27 0 -5
    endloop
  endfacet
  facet normal 1 0 0
    outer loop
      vertex 27 0 5
      vertex 27 0 -5
      vertex 27 45 -5
    endloop
  endfacet
  facet normal 1 0 0
    outer loop
      vertex 27 45 5
      vertex 27 0 5
      vertex 27 45 -5
    endloop
  endfacet
  facet normal 0 1 0
    outer loop
      vertex 21 45 -5
      vertex 21 45 5
      vertex 27 45 -5
    endloop
  endfacet
  facet normal 0 1 0
    outer loop
      vertex 27 45 -5
      vertex 21 45 5
      vertex 27 45 5
    endloop
  endfacet
  facet normal -0.83957 0.543251 0
    outer loop
      vertex 19.625 42.875 -5
      vertex 19.625 42.875 5
      vertex 21 45 -5
    endloop
  endfacet
  facet normal -0.83957 0.543251 0
    outer loop
      vertex 21 45 -5
      vertex 19.625 42.875 5
      vertex 21 45 5
    endloop
  endfacet
  facet normal -0.745241 0.666795 0
    outer loop
      vertex 17.5 40.5 -5
      vertex 17.5 40.5 5
      vertex 19.625 42.875 -5
    endloop
  endfacet
  facet normal -0.745241 0.666795 0
    outer loop
      vertex 19.625 42.875 -5
      vertex 17.5 40.5 5
      vertex 19.625 42.875 5
    endloop
  endfacet
  facet normal 0 -1 0
    outer loop
      vertex 36 12 5
      vertex 36 12 -5
      vertex 55 12 -5
    endloop
  endfacet
  facet normal 0 -1 0
    outer loop
      vertex 55 12 5
      vertex 36 12 5
      vertex 55 12 -5
    endloop
  endfacet
  facet normal 0 0 -1
    outer loop
      vertex 55 19 -5
      vertex 56 45 -5
      vertex 55 12 -5
    endloop
  endfacet
  facet normal 0 0 -1
    outer loop
      vertex 55 12 -5
      vertex 56 45 -5
      vertex 63 45 -5
    endloop
  endfacet
  facet normal 0 0 -1
    outer loop
      vertex 55 12 -5
      vertex 63 45 -5
      vertex 63 19 -5
    endloop
  endfacet
  facet normal 0 0 -1
    outer loop
      vertex 55 12 -5
      vertex 63 19 -5
      vertex 69 19 -5
    endloop
  endfacet
  facet normal 0 0 -1
    outer loop
      vertex 63 12 -5
      vertex 69 19 -5
      vertex 69 12 -5
    endloop
  endfacet
  facet normal 0 0 -1
    outer loop
      vertex 55 12 -5
      vertex 69 19 -5
      vertex 63 12 -5
    endloop
  endfacet
  facet normal 0 0 -1
    outer loop
      vertex 63 12 -5
      vertex 63 0 -5
      vertex 55 12 -5
    endloop
  endfacet
  facet normal 0 0 -1
    outer loop
      vertex 36 12 -5
      vertex 56 45 -5
      vertex 47 19 -5
    endloop
  endfacet
  facet normal 0 0 -1
    outer loop
      vertex 36 12 -5
      vertex 47 19 -5
      vertex 55 12 -5
    endloop
  endfacet
  facet normal 0 0 -1
    outer loop
      vertex 55 32 -5
      vertex 56 45 -5
      vertex 55 19 -5
    endloop
  endfacet
  facet normal 0 0 -1
    outer loop
      vertex 47 19 -5
      vertex 55 19 -5
      vertex 55 12 -5
    endloop
  endfacet
  facet normal 0 0 -1
    outer loop
      vertex 47 19 -5
      vertex 56 45 -5
      vertex 55 32 -5
    endloop
  endfacet
  facet normal 0 0 -1
    outer loop
      vertex 55 12 -5
      vertex 63 0 -5
      vertex 55 0 -5
    endloop
  endfacet
  facet normal -0.855198 0.518302 0
    outer loop
      vertex 36 12 -5
      vertex 36 12 5
      vertex 56 45 -5
    endloop
  endfacet
  facet normal -0.855198 0.518302 0
    outer loop
      vertex 56 45 -5
      vertex 36 12 5
      vertex 56 45 5
    endloop
  endfacet
  facet normal 0 0 1
    outer loop
      vertex 55 19 5
      vertex 36 12 5
      vertex 55 12 5
    endloop
  endfacet
  facet normal 0 0 1
    outer loop
      vertex 55 0 5
      vertex 56 45 5
      vertex 55 12 5
    endloop
  endfacet
  facet normal 0 0 1
    outer loop
      vertex 55 0 5
      vertex 63 0 5
      vertex 56 45 5
    endloop
  endfacet
  facet normal 0 0 1
    outer loop
      vertex 63 0 5
      vertex 63 12 5
      vertex 56 45 5
    endloop
  endfacet
  facet normal 0 0 1
    outer loop
      vertex 63 19 5
      vertex 63 45 5
      vertex 56 45 5
    endloop
  endfacet
  facet normal 0 0 1
    outer loop
      vertex 63 12 5
      vertex 63 19 5
      vertex 56 45 5
    endloop
  endfacet
  facet normal 0 0 1
    outer loop
      vertex 63 12 5
      vertex 69 12 5
      vertex 63 19 5
    endloop
  endfacet
  facet normal 0 0 1
    outer loop
      vertex 56 45 5
      vertex 55 19 5
      vertex 55 12 5
    endloop
  endfacet
  facet normal 0 0 1
    outer loop
      vertex 47 19 5
      vertex 36 12 5
      vertex 55 19 5
    endloop
  endfacet
  facet normal 0 0 1
    outer loop
      vertex 56 45 5
      vertex 36 12 5
      vertex 47 19 5
    endloop
  endfacet
  facet normal 0 0 1
    outer loop
      vertex 56 45 5
      vertex 55 32 5
      vertex 55 19 5
    endloop
  endfacet
  facet normal 0 0 1
    outer loop
      vertex 56 45 5
      vertex 47 19 5
      vertex 55 32 5
    endloop
  endfacet
  facet normal 0 0 1
    outer loop
      vertex 69 19 5
      vertex 63 19 5
      vertex 69 12 5
    endloop
  endfacet
  facet normal -1 0 0
    outer loop
      vertex 55 0 -5
      vertex 55 0 5
      vertex 55 12 -5
    endloop
  endfacet
  facet normal -1 0 0
    outer loop
      vertex 55 12 -5
      vertex 55 0 5
      vertex 55 12 5
    endloop
  endfacet
  facet normal 0 -1 0
    outer loop
      vertex 55 0 5
      vertex 55 0 -5
      vertex 63 0 -5
    endloop
  endfacet
  facet normal 0 -1 0
    outer loop
      vertex 63 0 5
      vertex 55 0 5
      vertex 63 0 -5
    endloop
  endfacet
  facet normal 1 0 0
    outer loop
      vertex 63 0 5
      vertex 63 0 -5
      vertex 63 12 -5
    endloop
  endfacet
  facet normal 1 0 0
    outer loop
      vertex 63 12 5
      vertex 63 0 5
      vertex 63 12 -5
    endloop
  endfacet
  facet normal 0 -1 0
    outer loop
      vertex 63 12 5
      vertex 63 12 -5
      vertex 69 12 -5
    endloop
  endfacet
  facet normal 0 -1 0
    outer loop
      vertex 69 12 5
      vertex 63 12 5
      vertex 69 12 -5
    endloop
  endfacet
  facet normal 1 0 0
    outer loop
      vertex 69 12 5
      vertex 69 12 -5
      vertex 69 19 -5
    endloop
  endfacet
  facet normal 1 0 0
    outer loop
      vertex 69 19 5
      vertex 69 12 5
      vertex 69 19 -5
    endloop
  endfacet
  facet normal 0 1 0
    outer loop
      vertex 63 19 -5
      vertex 63 19 5
      vertex 69 19 -5
    endloop
  endfacet
  facet normal 0 1 0
    outer loop
      vertex 69 19 -5
      vertex 63 19 5
      vertex 69 19 5
    endloop
  endfacet
  facet normal 1 0 0
    outer loop
      vertex 63 19 5
      vertex 63 19 -5
      vertex 63 45 -5
    endloop
  endfacet
  facet normal 1 0 0
    outer loop
      vertex 63 45 5
      vertex 63 19 5
      vertex 63 45 -5
    endloop
  endfacet
  facet normal 0 1 0
    outer loop
      vertex 56 45 -5
      vertex 56 45 5
      vertex 63 45 -5
    endloop
  endfacet
  facet normal 0 1 0
    outer loop
      vertex 63 45 -5
      vertex 56 45 5
      vertex 63 45 5
    endloop
  endfacet
  facet normal 0 1 0
    outer loop
      vertex 55 19 5
      vertex 55 19 -5
      vertex 47 19 5
    endloop
  endfacet
  facet normal 0 1 0
    outer loop
      vertex 47 19 5
      vertex 55 19 -5
      vertex 47 19 -5
    endloop
  endfacet
  facet normal 0.851658 -0.524097 0
    outer loop
      vertex 55 32 -5
      vertex 55 32 5
      vertex 47 19 5
    endloop
  endfacet
  facet normal 0.851658 -0.524097 0
    outer loop
      vertex 47 19 -5
      vertex 55 32 -5
      vertex 47 19 5
    endloop
  endfacet
  facet normal -1 0 0
    outer loop
      vertex 55 32 5
      vertex 55 32 -5
      vertex 55 19 5
    endloop
  endfacet
  facet normal -1 0 0
    outer loop
      vertex 55 19 5
      vertex 55 32 -5
      vertex 55 19 -5
    endloop
  endfacet
endsolid OpenSCAD_Model
