solid csg.js
facet normal 0 0 -1
outer loop
vertex -35.80785280403232 7.950903220161226 0
vertex -35.23879532511287 9.826834323650898 0
vertex -34.31469612302546 11.555702330196004 0
endloop
endfacet
facet normal 0 0 -1
outer loop
vertex -35.80785280403232 7.950903220161226 0
vertex -34.31469612302546 11.555702330196004 0
vertex -33.071067811865454 13.071067811865491 0
endloop
endfacet
facet normal 0 0 -1
outer loop
vertex -35.80785280403232 7.950903220161226 0
vertex -33.071067811865454 13.071067811865491 0
vertex -31.555702330196024 14.314696123025449 0
endloop
endfacet
facet normal 0 0 -1
outer loop
vertex -35.80785280403232 7.950903220161226 0
vertex -31.555702330196024 14.314696123025449 0
vertex -29.82683432365089 15.23879532511287 0
endloop
endfacet
facet normal 0 0 -1
outer loop
vertex -35.80785280403232 7.950903220161226 0
vertex -29.82683432365089 15.23879532511287 0
vertex -27.950903220161276 15.807852804032308 0
endloop
endfacet
facet normal 0 0 -1
outer loop
vertex -35.80785280403232 7.950903220161226 0
vertex -27.950903220161276 15.807852804032308 0
vertex -26.000000000000014 16 0
endloop
endfacet
facet normal 0 0 -1
outer loop
vertex -35.80785280403232 7.950903220161226 0
vertex -26.000000000000014 16 0
vertex 26.000000000000004 16 0
endloop
endfacet
facet normal 0 0 -1
outer loop
vertex -35.80785280403232 7.950903220161226 0
vertex 26.000000000000004 16 0
vertex 27.950903220161283 15.8078528040323 0
endloop
endfacet
facet normal 0 0 -1
outer loop
vertex -35.80785280403232 7.950903220161226 0
vertex 27.950903220161283 15.8078528040323 0
vertex 29.826834323650903 15.238795325112866 0
endloop
endfacet
facet normal 0 0 -1
outer loop
vertex -35.80785280403232 7.950903220161226 0
vertex 29.826834323650903 15.238795325112866 0
vertex 31.555702330196027 14.31469612302545 0
endloop
endfacet
facet normal 0 0 -1
outer loop
vertex -35.80785280403232 7.950903220161226 0
vertex 31.555702330196027 14.31469612302545 0
vertex 33.071067811865504 13.07106781186545 0
endloop
endfacet
facet normal 0 0 -1
outer loop
vertex -35.80785280403232 7.950903220161226 0
vertex 33.071067811865504 13.07106781186545 0
vertex 34.314696123025435 11.555702330196054 0
endloop
endfacet
facet normal 0 0 -1
outer loop
vertex -35.80785280403232 7.950903220161226 0
vertex 34.314696123025435 11.555702330196054 0
vertex 35.238795325112875 9.826834323650877 0
endloop
endfacet
facet normal 0 0 -1
outer loop
vertex -35.80785280403232 7.950903220161226 0
vertex 35.238795325112875 9.826834323650877 0
vertex 35.80785280403231 7.950903220161294 0
endloop
endfacet
facet normal 0 0 -1
outer loop
vertex -35.80785280403232 7.950903220161226 0
vertex 35.80785280403231 7.950903220161294 0
vertex 36 5.999999999999996 0
endloop
endfacet
facet normal 0 0 -1
outer loop
vertex -35.80785280403232 7.950903220161226 0
vertex 36 5.999999999999996 0
vertex 36 -5.999999999999992 0
endloop
endfacet
facet normal 0 0 -1
outer loop
vertex -35.80785280403232 7.950903220161226 0
vertex 36 -5.999999999999992 0
vertex 35.8078528040323 -7.950903220161296 0
endloop
endfacet
facet normal 0 0 -1
outer loop
vertex -35.80785280403232 7.950903220161226 0
vertex 35.8078528040323 -7.950903220161296 0
vertex 35.238795325112875 -9.826834323650887 0
endloop
endfacet
facet normal 0 0 -1
outer loop
vertex -35.80785280403232 7.950903220161226 0
vertex 35.238795325112875 -9.826834323650887 0
vertex 34.314696123025456 -11.555702330196025 0
endloop
endfacet
facet normal 0 0 -1
outer loop
vertex -35.80785280403232 7.950903220161226 0
vertex 34.314696123025456 -11.555702330196025 0
vertex 33.07106781186548 -13.07106781186547 0
endloop
endfacet
facet normal 0 0 -1
outer loop
vertex -35.80785280403232 7.950903220161226 0
vertex 33.07106781186548 -13.07106781186547 0
vertex 31.555702330196024 -14.314696123025454 0
endloop
endfacet
facet normal 0 0 -1
outer loop
vertex -35.80785280403232 7.950903220161226 0
vertex 31.555702330196024 -14.314696123025454 0
vertex 29.82683432365089 -15.238795325112873 0
endloop
endfacet
facet normal 0 0 -1
outer loop
vertex -35.80785280403232 7.950903220161226 0
vertex 29.82683432365089 -15.238795325112873 0
vertex 27.950903220161308 -15.8078528040323 0
endloop
endfacet
facet normal 0 0 -1
outer loop
vertex -35.80785280403232 7.950903220161226 0
vertex 27.950903220161308 -15.8078528040323 0
vertex 25.999999999999986 -16 0
endloop
endfacet
facet normal 0 0 -1
outer loop
vertex -35.80785280403232 7.950903220161226 0
vertex 25.999999999999986 -16 0
vertex -26.00000000000002 -16 0
endloop
endfacet
facet normal 0 0 -1
outer loop
vertex -35.80785280403232 7.950903220161226 0
vertex -26.00000000000002 -16 0
vertex -27.950903220161287 -15.807852804032303 0
endloop
endfacet
facet normal 0 0 -1
outer loop
vertex -35.80785280403232 7.950903220161226 0
vertex -27.950903220161287 -15.807852804032303 0
vertex -29.826834323650903 -15.238795325112866 0
endloop
endfacet
facet normal 0 0 -1
outer loop
vertex -35.80785280403232 7.950903220161226 0
vertex -29.826834323650903 -15.238795325112866 0
vertex -31.555702330196038 -14.314696123025445 0
endloop
endfacet
facet normal 0 0 -1
outer loop
vertex -35.80785280403232 7.950903220161226 0
vertex -31.555702330196038 -14.314696123025445 0
vertex -33.07106781186548 -13.071067811865476 0
endloop
endfacet
facet normal 0 0 -1
outer loop
vertex -35.80785280403232 7.950903220161226 0
vertex -33.07106781186548 -13.071067811865476 0
vertex -34.31469612302547 -11.555702330196008 0
endloop
endfacet
facet normal 0 0 -1
outer loop
vertex -35.80785280403232 7.950903220161226 0
vertex -34.31469612302547 -11.555702330196008 0
vertex -35.238795325112854 -9.826834323650937 0
endloop
endfacet
facet normal 0 0 -1
outer loop
vertex -35.80785280403232 7.950903220161226 0
vertex -35.238795325112854 -9.826834323650937 0
vertex -35.80785280403231 -7.950903220161269 0
endloop
endfacet
facet normal 0 0 -1
outer loop
vertex -35.80785280403232 7.950903220161226 0
vertex -35.80785280403231 -7.950903220161269 0
vertex -36 -6.000000000000009 0
endloop
endfacet
facet normal 0 0 -1
outer loop
vertex -35.80785280403232 7.950903220161226 0
vertex -36 -6.000000000000009 0
vertex -36 6.000000000000034 0
endloop
endfacet
facet normal 0 0 1
outer loop
vertex 35.8078528040323 7.950903220161306 20
vertex 35.23879532511287 9.826834323650889 20
vertex 34.31469612302544 11.555702330196041 20
endloop
endfacet
facet normal 0 0 1
outer loop
vertex 35.8078528040323 7.950903220161306 20
vertex 34.31469612302544 11.555702330196041 20
vertex 33.071067811865476 13.071067811865479 20
endloop
endfacet
facet normal 0 0 1
outer loop
vertex 35.8078528040323 7.950903220161306 20
vertex 33.071067811865476 13.071067811865479 20
vertex 31.555702330196034 14.314696123025444 20
endloop
endfacet
facet normal 0 0 1
outer loop
vertex 35.8078528040323 7.950903220161306 20
vertex 31.555702330196034 14.314696123025444 20
vertex 29.826834323650907 15.238795325112864 20
endloop
endfacet
facet normal 0 0 1
outer loop
vertex 35.8078528040323 7.950903220161306 20
vertex 29.826834323650907 15.238795325112864 20
vertex 27.950903220161294 15.8078528040323 20
endloop
endfacet
facet normal 0 0 1
outer loop
vertex 35.8078528040323 7.950903220161306 20
vertex 27.950903220161294 15.8078528040323 20
vertex 25.999999999999975 16 20
endloop
endfacet
facet normal 0 0 1
outer loop
vertex 35.8078528040323 7.950903220161306 20
vertex 25.999999999999975 16 20
vertex -26.000000000000032 16 20
endloop
endfacet
facet normal 0 0 1
outer loop
vertex 35.8078528040323 7.950903220161306 20
vertex -26.000000000000032 16 20
vertex -27.950903220161265 15.80785280403231 20
endloop
endfacet
facet normal 0 0 1
outer loop
vertex 35.8078528040323 7.950903220161306 20
vertex -27.950903220161265 15.80785280403231 20
vertex -29.8268343236509 15.238795325112866 20
endloop
endfacet
facet normal 0 0 1
outer loop
vertex 35.8078528040323 7.950903220161306 20
vertex -29.8268343236509 15.238795325112866 20
vertex -31.555702330196034 14.314696123025445 20
endloop
endfacet
facet normal 0 0 1
outer loop
vertex 35.8078528040323 7.950903220161306 20
vertex -31.555702330196034 14.314696123025445 20
vertex -33.07106781186546 13.07106781186549 20
endloop
endfacet
facet normal 0 0 1
outer loop
vertex 35.8078528040323 7.950903220161306 20
vertex -33.07106781186546 13.07106781186549 20
vertex -34.31469612302547 11.555702330196006 20
endloop
endfacet
facet normal 0 0 1
outer loop
vertex 35.8078528040323 7.950903220161306 20
vertex -34.31469612302547 11.555702330196006 20
vertex -35.23879532511286 9.826834323650923 20
endloop
endfacet
facet normal 0 0 1
outer loop
vertex 35.8078528040323 7.950903220161306 20
vertex -35.23879532511286 9.826834323650923 20
vertex -35.807852804032315 7.950903220161256 20
endloop
endfacet
facet normal 0 0 1
outer loop
vertex 35.8078528040323 7.950903220161306 20
vertex -35.807852804032315 7.950903220161256 20
vertex -36 6.000000000000085 20
endloop
endfacet
facet normal 0 0 1
outer loop
vertex 35.8078528040323 7.950903220161306 20
vertex -36 6.000000000000085 20
vertex -36 -5.999999999999977 20
endloop
endfacet
facet normal 0 0 1
outer loop
vertex 35.8078528040323 7.950903220161306 20
vertex -36 -5.999999999999977 20
vertex -35.8078528040323 -7.950903220161296 20
endloop
endfacet
facet normal 0 0 1
outer loop
vertex 35.8078528040323 7.950903220161306 20
vertex -35.8078528040323 -7.950903220161296 20
vertex -35.23879532511287 -9.826834323650896 20
endloop
endfacet
facet normal 0 0 1
outer loop
vertex 35.8078528040323 7.950903220161306 20
vertex -35.23879532511287 -9.826834323650896 20
vertex -34.31469612302547 -11.55570233019601 20
endloop
endfacet
facet normal 0 0 1
outer loop
vertex 35.8078528040323 7.950903220161306 20
vertex -34.31469612302547 -11.55570233019601 20
vertex -33.07106781186548 -13.071067811865467 20
endloop
endfacet
facet normal 0 0 1
outer loop
vertex 35.8078528040323 7.950903220161306 20
vertex -33.07106781186548 -13.071067811865467 20
vertex -31.555702330196027 -14.31469612302545 20
endloop
endfacet
facet normal 0 0 1
outer loop
vertex 35.8078528040323 7.950903220161306 20
vertex -31.555702330196027 -14.31469612302545 20
vertex -29.8268343236509 -15.23879532511287 20
endloop
endfacet
facet normal 0 0 1
outer loop
vertex 35.8078528040323 7.950903220161306 20
vertex -29.8268343236509 -15.23879532511287 20
vertex -27.950903220161308 -15.8078528040323 20
endloop
endfacet
facet normal 0 0 1
outer loop
vertex 35.8078528040323 7.950903220161306 20
vertex -27.950903220161308 -15.8078528040323 20
vertex -26.00000000000002 -16 20
endloop
endfacet
facet normal 0 0 1
outer loop
vertex 35.8078528040323 7.950903220161306 20
vertex -26.00000000000002 -16 20
vertex 25.999999999999993 -16 20
endloop
endfacet
facet normal 0 0 1
outer loop
vertex 35.8078528040323 7.950903220161306 20
vertex 25.999999999999993 -16 20
vertex 27.950903220161294 -15.807852804032303 20
endloop
endfacet
facet normal 0 0 1
outer loop
vertex 35.8078528040323 7.950903220161306 20
vertex 27.950903220161294 -15.807852804032303 20
vertex 29.826834323650907 -15.238795325112866 20
endloop
endfacet
facet normal 0 0 1
outer loop
vertex 35.8078528040323 7.950903220161306 20
vertex 29.826834323650907 -15.238795325112866 20
vertex 31.55570233019601 -14.314696123025463 20
endloop
endfacet
facet normal 0 0 1
outer loop
vertex 35.8078528040323 7.950903220161306 20
vertex 31.55570233019601 -14.314696123025463 20
vertex 33.07106781186549 -13.07106781186547 20
endloop
endfacet
facet normal 0 0 1
outer loop
vertex 35.8078528040323 7.950903220161306 20
vertex 33.07106781186549 -13.07106781186547 20
vertex 34.314696123025456 -11.555702330196024 20
endloop
endfacet
facet normal 0 0 1
outer loop
vertex 35.8078528040323 7.950903220161306 20
vertex 34.314696123025456 -11.555702330196024 20
vertex 35.23879532511287 -9.8268343236509 20
endloop
endfacet
facet normal 0 0 1
outer loop
vertex 35.8078528040323 7.950903220161306 20
vertex 35.23879532511287 -9.8268343236509 20
vertex 35.8078528040323 -7.950903220161304 20
endloop
endfacet
facet normal 0 0 1
outer loop
vertex 35.8078528040323 7.950903220161306 20
vertex 35.8078528040323 -7.950903220161304 20
vertex 36 -5.999999999999993 20
endloop
endfacet
facet normal 0 0 1
outer loop
vertex 35.8078528040323 7.950903220161306 20
vertex 36 -5.999999999999993 20
vertex 36 5.999999999999963 20
endloop
endfacet
facet normal -1 0 0
outer loop
vertex -36 6.000000000000085 20
vertex -36 6.000000000000034 0
vertex -36 -6.000000000000009 0
endloop
endfacet
facet normal -1 0 0
outer loop
vertex -36 6.000000000000085 20
vertex -36 -6.000000000000009 0
vertex -36 -5.999999999999977 20
endloop
endfacet
facet normal 0 -1 0
outer loop
vertex 25.999999999999986 -16 0
vertex 25.999999999999993 -16 20
vertex -26.00000000000002 -16 20
endloop
endfacet
facet normal 0 -1 0
outer loop
vertex 25.999999999999986 -16 0
vertex -26.00000000000002 -16 20
vertex -26.00000000000002 -16 0
endloop
endfacet
facet normal 1 0 0
outer loop
vertex 36 5.999999999999996 0
vertex 36 5.999999999999963 20
vertex 36 -5.999999999999993 20
endloop
endfacet
facet normal 1 0 0
outer loop
vertex 36 5.999999999999996 0
vertex 36 -5.999999999999993 20
vertex 36 -5.999999999999992 0
endloop
endfacet
facet normal 0 1 0
outer loop
vertex 25.999999999999975 16 20
vertex 26.000000000000004 16 0
vertex -26.000000000000014 16 0
endloop
endfacet
facet normal 0 1 0
outer loop
vertex 25.999999999999975 16 20
vertex -26.000000000000014 16 0
vertex -26.000000000000032 16 20
endloop
endfacet
facet normal -0.09801714032955994 0.9951847266721968 0
outer loop
vertex -27.950903220161265 15.80785280403231 20
vertex -26.000000000000032 16 20
vertex -26.000000000000014 16 0
endloop
endfacet
facet normal -0.09801714032955994 0.9951847266721968 0
outer loop
vertex -27.950903220161265 15.80785280403231 20
vertex -26.000000000000014 16 0
vertex -27.950903220161276 15.807852804032308 0
endloop
endfacet
facet normal -0.2902846772544628 0.9569403357322087 0
outer loop
vertex -29.8268343236509 15.238795325112866 20
vertex -27.950903220161265 15.80785280403231 20
vertex -27.950903220161276 15.807852804032308 0
endloop
endfacet
facet normal -0.2902846772544628 0.9569403357322087 0
outer loop
vertex -29.8268343236509 15.238795325112866 20
vertex -27.950903220161276 15.807852804032308 0
vertex -29.82683432365089 15.23879532511287 0
endloop
endfacet
facet normal -0.47139673682599775 0.8819212643483549 0
outer loop
vertex -31.555702330196034 14.314696123025445 20
vertex -29.8268343236509 15.238795325112866 20
vertex -29.82683432365089 15.23879532511287 0
endloop
endfacet
facet normal -0.47139673682599775 0.8819212643483549 0
outer loop
vertex -31.555702330196034 14.314696123025445 20
vertex -29.82683432365089 15.23879532511287 0
vertex -31.555702330196024 14.314696123025449 0
endloop
endfacet
facet normal -0.6343932841636452 0.7730104533627372 0
outer loop
vertex -33.07106781186546 13.07106781186549 20
vertex -31.555702330196034 14.314696123025445 20
vertex -31.555702330196024 14.314696123025449 0
endloop
endfacet
facet normal -0.6343932841636452 0.7730104533627372 0
outer loop
vertex -33.07106781186546 13.07106781186549 20
vertex -31.555702330196024 14.314696123025449 0
vertex -33.071067811865454 13.071067811865491 0
endloop
endfacet
facet normal -0.7730104533627362 0.6343932841636464 0
outer loop
vertex -34.31469612302547 11.555702330196006 20
vertex -33.07106781186546 13.07106781186549 20
vertex -33.071067811865454 13.071067811865491 0
endloop
endfacet
facet normal -0.7730104533627362 0.6343932841636464 0
outer loop
vertex -34.31469612302547 11.555702330196006 20
vertex -33.071067811865454 13.071067811865491 0
vertex -34.31469612302546 11.555702330196004 0
endloop
endfacet
facet normal -0.8819212643483556 0.4713967368259968 0
outer loop
vertex -35.23879532511286 9.826834323650923 20
vertex -34.31469612302547 11.555702330196006 20
vertex -34.31469612302546 11.555702330196004 0
endloop
endfacet
facet normal -0.8819212643483556 0.4713967368259968 0
outer loop
vertex -35.23879532511286 9.826834323650923 20
vertex -34.31469612302546 11.555702330196004 0
vertex -35.23879532511287 9.826834323650898 0
endloop
endfacet
facet normal -0.9569403357322085 0.29028467725446333 0
outer loop
vertex -35.807852804032315 7.950903220161256 20
vertex -35.23879532511286 9.826834323650923 20
vertex -35.23879532511287 9.826834323650898 0
endloop
endfacet
facet normal -0.9569403357322085 0.29028467725446333 0
outer loop
vertex -35.807852804032315 7.950903220161256 20
vertex -35.23879532511287 9.826834323650898 0
vertex -35.80785280403232 7.950903220161226 0
endloop
endfacet
facet normal -0.995184726672197 0.09801714032955897 0
outer loop
vertex -36 6.000000000000085 20
vertex -35.807852804032315 7.950903220161256 20
vertex -35.80785280403232 7.950903220161226 0
endloop
endfacet
facet normal -0.995184726672197 0.09801714032955897 0
outer loop
vertex -36 6.000000000000085 20
vertex -35.80785280403232 7.950903220161226 0
vertex -36 6.000000000000034 0
endloop
endfacet
facet normal -0.995184726672197 -0.09801714032955905 0
outer loop
vertex -35.8078528040323 -7.950903220161296 20
vertex -36 -5.999999999999977 20
vertex -36 -6.000000000000009 0
endloop
endfacet
facet normal -0.995184726672197 -0.09801714032955905 0
outer loop
vertex -35.8078528040323 -7.950903220161296 20
vertex -36 -6.000000000000009 0
vertex -35.80785280403231 -7.950903220161269 0
endloop
endfacet
facet normal -0.9569403357322084 -0.2902846772544641 0
outer loop
vertex -35.23879532511287 -9.826834323650896 20
vertex -35.8078528040323 -7.950903220161296 20
vertex -35.80785280403231 -7.950903220161269 0
endloop
endfacet
facet normal -0.9569403357322084 -0.2902846772544641 0
outer loop
vertex -35.23879532511287 -9.826834323650896 20
vertex -35.80785280403231 -7.950903220161269 0
vertex -35.238795325112854 -9.826834323650937 0
endloop
endfacet
facet normal -0.8819212643483564 -0.47139673682599487 0
outer loop
vertex -34.31469612302547 -11.55570233019601 20
vertex -35.23879532511287 -9.826834323650896 20
vertex -35.238795325112854 -9.826834323650937 0
endloop
endfacet
facet normal -0.8819212643483564 -0.47139673682599487 0
outer loop
vertex -34.31469612302547 -11.55570233019601 20
vertex -35.238795325112854 -9.826834323650937 0
vertex -34.31469612302547 -11.555702330196008 0
endloop
endfacet
facet normal -0.7730104533627359 -0.6343932841636468 0
outer loop
vertex -33.07106781186548 -13.071067811865467 20
vertex -34.31469612302547 -11.55570233019601 20
vertex -34.31469612302547 -11.555702330196008 0
endloop
endfacet
facet normal -0.7730104533627359 -0.6343932841636468 0
outer loop
vertex -33.07106781186548 -13.071067811865467 20
vertex -34.31469612302547 -11.555702330196008 0
vertex -33.07106781186548 -13.071067811865476 0
endloop
endfacet
facet normal -0.6343932841636459 -0.7730104533627367 0
outer loop
vertex -31.555702330196027 -14.31469612302545 20
vertex -33.07106781186548 -13.071067811865467 20
vertex -33.07106781186548 -13.071067811865476 0
endloop
endfacet
facet normal -0.6343932841636459 -0.7730104533627367 0
outer loop
vertex -31.555702330196027 -14.31469612302545 20
vertex -33.07106781186548 -13.071067811865476 0
vertex -31.555702330196038 -14.314696123025445 0
endloop
endfacet
facet normal -0.4713967368259977 -0.881921264348355 0
outer loop
vertex -29.8268343236509 -15.23879532511287 20
vertex -31.555702330196027 -14.31469612302545 20
vertex -31.555702330196038 -14.314696123025445 0
endloop
endfacet
facet normal -0.4713967368259977 -0.881921264348355 0
outer loop
vertex -29.8268343236509 -15.23879532511287 20
vertex -31.555702330196038 -14.314696123025445 0
vertex -29.826834323650903 -15.238795325112866 0
endloop
endfacet
facet normal -0.29028467725446216 -0.9569403357322089 0
outer loop
vertex -27.950903220161308 -15.8078528040323 20
vertex -29.8268343236509 -15.23879532511287 20
vertex -29.826834323650903 -15.238795325112866 0
endloop
endfacet
facet normal -0.29028467725446216 -0.9569403357322089 0
outer loop
vertex -27.950903220161308 -15.8078528040323 20
vertex -29.826834323650903 -15.238795325112866 0
vertex -27.950903220161287 -15.807852804032303 0
endloop
endfacet
facet normal -0.0980171403295614 -0.9951847266721969 0
outer loop
vertex -26.00000000000002 -16 20
vertex -27.950903220161308 -15.8078528040323 20
vertex -27.950903220161287 -15.807852804032303 0
endloop
endfacet
facet normal -0.0980171403295614 -0.9951847266721969 0
outer loop
vertex -26.00000000000002 -16 20
vertex -27.950903220161287 -15.807852804032303 0
vertex -26.00000000000002 -16 0
endloop
endfacet
facet normal 0.09801714032956067 -0.9951847266721968 0
outer loop
vertex 27.950903220161294 -15.807852804032303 20
vertex 25.999999999999993 -16 20
vertex 25.999999999999986 -16 0
endloop
endfacet
facet normal 0.09801714032956067 -0.9951847266721968 0
outer loop
vertex 27.950903220161294 -15.807852804032303 20
vertex 25.999999999999986 -16 0
vertex 27.950903220161308 -15.8078528040323 0
endloop
endfacet
facet normal 0.2902846772544628 -0.9569403357322087 0
outer loop
vertex 29.826834323650907 -15.238795325112866 20
vertex 27.950903220161294 -15.807852804032303 20
vertex 27.950903220161308 -15.8078528040323 0
endloop
endfacet
facet normal 0.2902846772544628 -0.9569403357322087 0
outer loop
vertex 29.826834323650907 -15.238795325112866 20
vertex 27.950903220161308 -15.8078528040323 0
vertex 29.82683432365089 -15.238795325112873 0
endloop
endfacet
facet normal 0.4713967368259972 -0.8819212643483553 0
outer loop
vertex 31.55570233019601 -14.314696123025463 20
vertex 29.826834323650907 -15.238795325112866 20
vertex 29.82683432365089 -15.238795325112873 0
endloop
endfacet
facet normal 0.4713967368259972 -0.8819212643483553 0
outer loop
vertex 31.55570233019601 -14.314696123025463 20
vertex 29.82683432365089 -15.238795325112873 0
vertex 31.555702330196024 -14.314696123025454 0
endloop
endfacet
facet normal 0.6343932841636448 -0.7730104533627374 0
outer loop
vertex 33.07106781186549 -13.07106781186547 20
vertex 31.55570233019601 -14.314696123025463 20
vertex 31.555702330196024 -14.314696123025454 0
endloop
endfacet
facet normal 0.6343932841636448 -0.7730104533627374 0
outer loop
vertex 33.07106781186549 -13.07106781186547 20
vertex 31.555702330196024 -14.314696123025454 0
vertex 33.07106781186548 -13.07106781186547 0
endloop
endfacet
facet normal 0.7730104533627365 -0.6343932841636459 0
outer loop
vertex 34.314696123025456 -11.555702330196024 20
vertex 33.07106781186549 -13.07106781186547 20
vertex 33.07106781186548 -13.07106781186547 0
endloop
endfacet
facet normal 0.7730104533627365 -0.6343932841636459 0
outer loop
vertex 34.314696123025456 -11.555702330196024 20
vertex 33.07106781186548 -13.07106781186547 0
vertex 34.314696123025456 -11.555702330196025 0
endloop
endfacet
facet normal 0.8819212643483559 -0.4713967368259961 0
outer loop
vertex 35.23879532511287 -9.8268343236509 20
vertex 34.314696123025456 -11.555702330196024 20
vertex 34.314696123025456 -11.555702330196025 0
endloop
endfacet
facet normal 0.8819212643483559 -0.4713967368259961 0
outer loop
vertex 35.23879532511287 -9.8268343236509 20
vertex 34.314696123025456 -11.555702330196025 0
vertex 35.238795325112875 -9.826834323650887 0
endloop
endfacet
facet normal 0.9569403357322092 -0.2902846772544613 0
outer loop
vertex 35.8078528040323 -7.950903220161304 20
vertex 35.23879532511287 -9.8268343236509 20
vertex 35.238795325112875 -9.826834323650887 0
endloop
endfacet
facet normal 0.9569403357322092 -0.2902846772544613 0
outer loop
vertex 35.8078528040323 -7.950903220161304 20
vertex 35.238795325112875 -9.826834323650887 0
vertex 35.8078528040323 -7.950903220161296 0
endloop
endfacet
facet normal 0.9951847266721967 -0.09801714032956228 0
outer loop
vertex 36 -5.999999999999993 20
vertex 35.8078528040323 -7.950903220161304 20
vertex 35.8078528040323 -7.950903220161296 0
endloop
endfacet
facet normal 0.9951847266721967 -0.09801714032956228 0
outer loop
vertex 36 -5.999999999999993 20
vertex 35.8078528040323 -7.950903220161296 0
vertex 36 -5.999999999999992 0
endloop
endfacet
facet normal 0.995184726672197 0.09801714032955891 0
outer loop
vertex 35.8078528040323 7.950903220161306 20
vertex 36 5.999999999999963 20
vertex 36 5.999999999999996 0
endloop
endfacet
facet normal 0.995184726672197 0.09801714032955891 0
outer loop
vertex 35.8078528040323 7.950903220161306 20
vertex 36 5.999999999999996 0
vertex 35.80785280403231 7.950903220161294 0
endloop
endfacet
facet normal 0.9569403357322084 0.2902846772544637 0
outer loop
vertex 35.23879532511287 9.826834323650889 20
vertex 35.8078528040323 7.950903220161306 20
vertex 35.80785280403231 7.950903220161294 0
endloop
endfacet
facet normal 0.9569403357322084 0.2902846772544637 0
outer loop
vertex 35.23879532511287 9.826834323650889 20
vertex 35.80785280403231 7.950903220161294 0
vertex 35.238795325112875 9.826834323650877 0
endloop
endfacet
facet normal 0.8819212643483557 0.4713967368259964 0
outer loop
vertex 34.31469612302544 11.555702330196041 20
vertex 35.23879532511287 9.826834323650889 20
vertex 35.238795325112875 9.826834323650877 0
endloop
endfacet
facet normal 0.8819212643483557 0.4713967368259964 0
outer loop
vertex 34.31469612302544 11.555702330196041 20
vertex 35.238795325112875 9.826834323650877 0
vertex 34.314696123025435 11.555702330196054 0
endloop
endfacet
facet normal 0.7730104533627362 0.6343932841636464 0
outer loop
vertex 33.071067811865476 13.071067811865479 20
vertex 34.31469612302544 11.555702330196041 20
vertex 34.314696123025435 11.555702330196054 0
endloop
endfacet
facet normal 0.7730104533627362 0.6343932841636464 0
outer loop
vertex 33.071067811865476 13.071067811865479 20
vertex 34.314696123025435 11.555702330196054 0
vertex 33.071067811865504 13.07106781186545 0
endloop
endfacet
facet normal 0.6343932841636457 0.7730104533627368 0
outer loop
vertex 31.555702330196034 14.314696123025444 20
vertex 33.071067811865476 13.071067811865479 20
vertex 33.071067811865504 13.07106781186545 0
endloop
endfacet
facet normal 0.6343932841636457 0.7730104533627368 0
outer loop
vertex 31.555702330196034 14.314696123025444 20
vertex 33.071067811865504 13.07106781186545 0
vertex 31.555702330196027 14.31469612302545 0
endloop
endfacet
facet normal 0.47139673682599786 0.881921264348355 0
outer loop
vertex 29.826834323650907 15.238795325112864 20
vertex 31.555702330196034 14.314696123025444 20
vertex 31.555702330196027 14.31469612302545 0
endloop
endfacet
facet normal 0.47139673682599786 0.881921264348355 0
outer loop
vertex 29.826834323650907 15.238795325112864 20
vertex 31.555702330196027 14.31469612302545 0
vertex 29.826834323650903 15.238795325112866 0
endloop
endfacet
facet normal 0.29028467725446194 0.9569403357322089 0
outer loop
vertex 27.950903220161294 15.8078528040323 20
vertex 29.826834323650907 15.238795325112864 20
vertex 29.826834323650903 15.238795325112866 0
endloop
endfacet
facet normal 0.29028467725446194 0.9569403357322089 0
outer loop
vertex 27.950903220161294 15.8078528040323 20
vertex 29.826834323650903 15.238795325112866 0
vertex 27.950903220161283 15.8078528040323 0
endloop
endfacet
facet normal 0.09801714032956067 0.9951847266721968 0
outer loop
vertex 25.999999999999975 16 20
vertex 27.950903220161294 15.8078528040323 20
vertex 27.950903220161283 15.8078528040323 0
endloop
endfacet
facet normal 0.09801714032956067 0.9951847266721968 0
outer loop
vertex 25.999999999999975 16 20
vertex 27.950903220161283 15.8078528040323 0
vertex 26.000000000000004 16 0
endloop
endfacet
endsolid csg.js
